<svg width="245" height="451" viewBox="0 0 245 451" fill="none" xmlns="http://www.w3.org/2000/svg">
<g clip-path="url(#clip0_15_57)">
<path d="M93.07 140.63C94.25 208.38 105.94 276.27 128.6 340.17C140.24 372.97 156.02 403.75 169.82 435.62C172.41 441.59 175.47 449.51 178.01 456.65C180.85 464.64 183.43 472.72 185.79 480.86C190.38 496.69 194.13 512.76 197.31 528.94C204.76 566.83 208.58 601.87 212.84 640.38C213.76 648.67 219.54 656.8 228.84 656.38C236.72 656.03 245.82 649.29 244.84 640.38C237.4 573.05 230.22 504.29 206.07 440.49C199.71 423.69 192.13 407.41 184.49 391.17C176.85 374.93 170.94 361.97 165.13 346.93C153.19 316.04 143.9 284.15 137.21 251.72C135.29 242.42 133.59 233.07 132.1 223.68C130.52 213.75 129.71 207.6 128.64 197.78C126.58 178.79 125.41 159.72 125.08 140.62C124.93 132.26 117.82 124.23 109.08 124.62C100.34 125.01 92.92 131.65 93.08 140.62L93.07 140.63Z" fill="#008A46"/>
<path d="M196.59 87.93C190.29 81.63 181.78 82.92 175.38 87.93C176.26 87.23 175.97 87.42 174.51 88.5C173.63 89.12 172.73 89.72 171.82 90.29C170.46 91.16 169.07 91.98 167.67 92.76C166.26 93.54 164.83 94.28 163.38 94.98C162.61 95.35 161.84 95.7 161.06 96.05C160.93 96.09 160.43 96.29 159.55 96.65C159.37 96.71 159.19 96.77 159.01 96.84C171.02 83.69 181.15 67.2 177 49.1C175.19 41.2 166.12 36.54 158.55 38.62C155.72 39.4 153.39 40.92 151.6 42.9C151.39 38.96 150.82 35 149.84 31.04C147.91 23.17 139.04 18.46 131.39 20.56C123.38 22.76 118.98 31.12 120.91 39.01C121.14 39.94 121.35 40.88 121.55 41.82C121.59 42.02 121.63 42.19 121.66 42.35C121.66 42.45 121.66 42.6 121.68 42.82C121.8 44.74 121.86 46.64 121.77 48.56C121.74 49.27 121.64 50.49 121.67 50.53C121.56 51.16 121.44 51.79 121.31 52.42C120.86 54.54 120.28 56.62 119.56 58.66C119.51 58.8 119.16 59.67 118.96 60.19C118.71 60.68 118.28 61.56 118.21 61.69C117.21 63.61 116.07 65.44 114.85 67.23C114.32 68.01 113.53 68.77 114.56 67.61C114.39 67.81 114.2 68 114.03 68.2C112.81 65.75 110.93 63.67 108.38 62.43C108.19 62.34 108.04 62.26 107.91 62.2C107.69 61.35 107.47 60.5 107.26 59.64C107.23 59.51 107.2 59.43 107.18 59.36C107.18 59.23 107.18 59.07 107.17 58.88C107.14 57.99 107.08 57.1 107.07 56.2C107.03 53.45 107.13 50.69 107.31 47.94C107.94 38.44 110.45 28.59 114.15 18.9C116.96 11.56 111.05 2.13 103.67 0.450002C95.1 -1.5 88.22 3.06 85.22 10.93C82.79 17.29 80.91 23.87 79.56 30.56C79.17 23.12 72.1 16.32 64.58 16.66C56.2 17.04 49.9 23.25 49.58 31.66C48.9 49.44 49.48 67.56 58.92 83.25C61.66 87.8 64.9 91.93 68.56 95.63C66.88 95.33 65.12 94.99 63.21 94.59C48.74 91.56 35.1 86.84 22.47 80.42C15.25 76.75 6.19999 78.52 1.94999 85.8C-1.96001 92.49 0.0799942 102.64 7.32999 106.32C23.58 114.58 40.86 120.86 58.8 124.22C61.84 124.79 64.9 125.29 67.97 125.73C64.25 128.4 60.22 130.81 55.45 133.28C50.15 136.03 47.4 137.19 41.08 139.15C38.5 139.95 35.9 140.66 33.27 141.27C31.69 141.63 30.11 141.96 28.51 142.26C28.07 142.34 23.71 143.01 26.09 142.7C18.34 143.7 10.7 148.88 11.09 157.7C11.42 164.97 17.75 173.77 26.09 172.7C55.5 168.91 82.65 156.18 103.17 134.47C103.38 134.25 103.56 134.02 103.75 133.79C106.42 134.24 109.18 134.43 111.97 134.42C122.1 134.37 132.21 133.42 142.22 131.93C162.23 128.95 180.62 121.64 196.57 109.15C202.95 104.15 201.81 93.18 196.57 87.94L196.59 87.93Z" fill="url(#paint0_radial_15_57)"/>
<path d="M140.62 117.94C138.42 112.48 134.59 109.1 128.57 108.76C119.63 108.26 110.87 111.31 103.97 116.77C90.82 111.76 77.57 110.43 63.45 112.94C59.1 113.72 56.04 117.78 54.72 121.67C51.01 132.61 59.39 142.35 69.62 144.86C78.24 146.98 87.85 147.08 96.65 146.43C98.09 146.32 99.48 146.01 100.78 145.52C106.28 147.66 113.05 145.63 116.11 140.4C117.35 140.56 118.61 140.73 119.85 140.84C123.88 141.2 128.09 140.62 131.7 138.72C138.82 134.97 143.81 125.86 140.61 117.93L140.62 117.94Z" fill="#045631"/>
<path d="M232.77 209.48C229.26 208.76 225.73 208.58 222.21 208.78C210.23 208.81 198.91 211.67 188.29 216.48C189.16 211.25 187.3 205.89 182.28 202.96C176.6 199.64 167.54 201.26 164.49 207.62C158.83 219.45 154.43 231.72 151.79 244.57C149.15 257.38 163.63 266.07 173.52 257.22C174.7 256.17 175.92 255.11 177.17 254.07C188.04 254.49 198.62 256.09 209.2 258.92C224.15 262.92 231.16 241.84 219.4 235.19C221.1 234.72 222.85 234.34 224.5 234.4C224.95 234.44 225.41 234.49 225.86 234.55C232.81 235.5 239.82 232.87 241.85 225.47C243.62 219.03 239.68 210.9 232.77 209.48Z" fill="#008A46"/>
<path d="M120.43 389.03C118.76 380.6 116.77 372.53 116.26 364.16C116.44 362.74 116.39 361.31 116.13 359.94C116.13 358.63 116.18 357.32 116.27 355.99C116.33 355.2 116.27 354.43 116.16 353.67C117.51 351.53 118.31 349.07 118.31 346.7C118.31 339.08 112.32 334.42 105.31 333.7C81.89 331.31 58.39 344.11 46.6 364.23C40.32 374.94 53.34 389.6 64.39 382.02C67.72 379.73 71.23 378.19 74.87 377.14C63.44 391.72 52.62 406.78 42.49 422.3C36.89 430.87 44.51 441.33 53.29 441.91C53.19 446.5 52.94 451.1 52.54 455.69C51.92 462.69 58.96 468.69 65.54 468.69C73.29 468.69 77.66 462.69 78.54 455.69C78.69 454.46 81.3 450.2 83.07 448.18C86.41 444.38 90.31 441.12 93.89 437.56C95.74 435.72 97.51 433.79 99.16 431.76C101.5 434.6 104.74 436.46 108.88 436.46C114.4 436.46 120.16 432.45 121.42 426.92C124.31 414.18 122.96 401.71 120.44 389.03H120.43Z" fill="#008A46"/>
</g>
<defs>
<radialGradient id="paint0_radial_15_57" cx="0" cy="0" r="1" gradientUnits="userSpaceOnUse" gradientTransform="translate(100.467 86.3947) rotate(88.7672) scale(88.5797 103.042)">
<stop stop-color="#FEDF3C"/>
<stop offset="1" stop-color="#F1B009"/>
</radialGradient>
<clipPath id="clip0_15_57">
<rect width="244.9" height="656.39" fill="white"/>
</clipPath>
</defs>
</svg>
