<svg width="418" height="2052" viewBox="0 0 418 2052" fill="none" xmlns="http://www.w3.org/2000/svg">
<g clip-path="url(#clip0_121_10)">
<path d="M186.439 242C181.939 258.333 153.639 308.1 164.439 376.5C177.939 462 303.939 564 303.939 737.5C303.939 911 134.439 1045.5 134.439 1215C134.439 1384.5 303.939 1503 303.939 1650.5C303.939 1798 134.439 1923.5 134.439 2124C134.439 2324.5 303.939 2479 303.939 2582C303.939 2664.4 295.272 2707.33 290.939 2718.5" stroke="#008A46" stroke-width="40"/>
<path d="M130.2 414.42C135.03 408.26 137.32 399.78 134.07 392.78C135.21 385.29 131.56 378.48 125.01 373.46C116.19 366.7 104.19 365.79 93.47 366.13C82.37 366.48 71.27 367.09 60.19 367.81C50.29 368.46 40.71 376.09 41.19 386.81C41.63 396.55 49.57 406.5 60.19 405.81C62 405.69 63.81 405.6 65.63 405.49C47.42 418.82 31.4 434.88 20.57 454.98C15.86 463.73 18.1 476.07 27.39 480.98C29.71 482.21 32.26 482.95 34.85 483.23C34.76 483.66 34.66 484.09 34.58 484.52C31.93 497.99 32.39 511.63 31.19 525.23C30.31 535.16 40.56 544.66 50.19 544.23C61.23 543.74 68.25 535.86 69.19 525.23C69.7 519.42 69.85 513.59 70.09 507.76C70.2 505.17 70.32 502.59 70.52 500.01C70.52 500.1 70.78 497.62 70.85 496.7C70.97 496 71.17 494.82 71.21 494.62C71.7 492.14 72.31 489.69 73.04 487.27C73.37 486.2 73.71 485.13 74.08 484.07C74.06 484.11 74.69 482.48 75.01 481.6C75.27 481.01 75.62 480.21 75.7 480.06C76.3 478.79 76.93 477.53 77.59 476.29C78.04 475.45 78.5 474.63 78.97 473.8C80.07 481.79 82.45 489.6 86.46 497.03C91.18 505.79 104.04 509.28 112.46 503.85C121.35 498.12 124.33 487.22 119.28 477.85C118.75 476.87 117.7 474.16 118.09 475.4C117.67 474.13 117.26 472.86 116.93 471.55C116.83 471.16 116.35 468.32 116.27 468.3C116.18 467.19 116.11 466.08 116.08 464.97C116 462.03 116.18 459.12 116.44 456.19C116.59 455.29 116.75 454.39 116.94 453.5C117.3 451.67 117.72 449.86 118.17 448.06C119.92 441.12 122.26 434.35 124.61 427.6C125.18 425.97 125.74 424.33 126.34 422.71C126.36 422.65 126.4 422.55 126.44 422.45C127 421.42 127.44 420.33 127.78 419.19C128.14 418.45 128.51 417.71 128.91 416.98C129.29 416.29 132.54 411.43 130.2 414.41V414.42ZM116.44 456.01C116.44 455.92 116.45 455.83 116.46 455.74C116.59 454.53 116.58 454.63 116.44 456.01Z" fill="#008A46"/>
<path d="M303.14 308.26C299.71 297.65 290.3 293.21 279.77 294.99C283.26 294.4 277.5 295.17 277.25 295.18C275.35 295.28 273.43 295.29 271.53 295.27C270.48 295.26 269.42 295.23 268.37 295.19C271.55 288.18 269.95 278.57 264.47 273.53C256.27 266 245.83 266.78 237.6 273.53C227.49 281.82 217.67 290.45 208.15 299.4C202.93 304.31 201.41 312.53 203.71 319.3C199.37 327.76 202.5 339.69 211.09 344.23C215.38 346.5 220.08 347.12 224.45 346.27C224.85 346.4 225.24 346.53 225.65 346.63C227.62 347.1 229.52 347.72 231.45 348.31C231.48 348.32 231.5 348.33 231.53 348.34C232.29 348.71 233.05 349.08 233.8 349.49C235.18 350.25 236.5 351.1 237.8 351.97C236.45 351.13 240.21 354.03 240.82 354.62C247.98 361.52 260.66 362.28 267.69 354.62C273.03 348.8 274.67 340.21 271.52 333.22C277.67 333.2 283.69 332.68 289.86 331.64C299.69 329.98 306.07 317.35 303.13 308.27L303.14 308.26Z" fill="#008A46"/>
<path d="M391.8 514.88C382.08 497.87 360.41 491.06 343.33 484C342.02 483.46 340.7 482.93 339.39 482.41C341.26 473.37 336.42 460.98 326.05 459.39C305.48 456.23 285.64 459.01 267.25 469.09C258.52 473.87 254.98 486.63 260.43 495.09C263.32 499.58 267.57 502.57 272.27 503.78C272.44 503.93 272.61 504.08 272.79 504.23C276.99 507.61 280.89 511.31 284.45 515.36C285.34 516.37 286.15 517.44 287.05 518.44C287.14 518.54 287.21 518.62 287.27 518.68C287.35 518.8 287.44 518.92 287.54 519.06C289.13 521.25 290.69 523.46 292.17 525.72C298.15 534.84 303.21 544.51 308.23 554.18C312.82 563.02 325.9 566.37 334.23 561C343.23 555.2 345.96 544.45 341.05 535C338.59 530.27 336.09 525.51 333.47 520.8C334.09 521.06 334.62 521.28 334.65 521.29C338.61 523.03 342.54 524.83 346.47 526.64C349.8 528.18 353.18 529.68 356.32 531.59C357.8 532.49 359.54 534.79 357.36 532.14C357.73 532.46 358.08 532.8 358.43 533.14C358.55 533.36 358.73 533.65 358.99 534.06C363.92 542.69 376.42 546.4 384.99 540.88C393.71 535.26 397.08 524.12 391.81 514.88H391.8Z" fill="#008A46"/>
<path d="M377.77 121.73C373.61 117.57 366.78 114.43 360.8 114.7C354.59 114.98 348.16 117.02 343.83 121.73C339.88 126.03 338.19 130.51 337.23 135.92C337.41 135.49 337.61 134.98 337.87 134.34C337.97 134.67 337.64 135.32 337.22 135.99C337.18 136.24 337.13 136.49 337.09 136.75C337.13 136.48 337.16 136.25 337.18 136.06C337.29 135.04 337.2 135.11 336.89 136.28C336.84 136.44 336.8 136.56 336.77 136.68C336.37 137.26 335.99 137.77 335.84 138C335.79 138.08 335.76 138.13 335.71 138.2C335.85 138.08 335.98 138.01 336.08 138.04C336.04 138.03 335.67 138.45 335.18 139.02C334.57 139.94 334.47 139.99 334.62 139.69C333.74 140.74 332.77 141.93 332.67 142.04C328.59 146.62 324.29 151 319.88 155.25C315.02 159.93 310 164.45 304.8 168.76C303.87 169.53 302.92 170.29 301.97 171.05C301.84 171.14 301.7 171.24 301.54 171.35C299.69 172.65 297.84 173.94 295.95 175.17C301.91 168.94 307.76 162.59 313.1 155.82C322.01 144.51 329.22 133.16 334.16 119.55C339.08 106.01 339.53 91.87 337.07 77.81C334.9 65.41 319.07 57.32 307.55 61.05C294.66 65.22 288.88 76.5 290.6 89.23C290.6 89.22 290.6 89.2 290.62 89.18C290.62 89.19 290.62 89.21 290.6 89.23C290.66 89.68 290.71 90.12 290.78 90.57C291.39 94.04 290.38 90.38 290.55 89.36C290.37 90.06 290.76 91.93 290.76 92.53C290.77 93.64 290.75 94.76 290.69 95.88C290.69 95.92 290.68 96.04 290.67 96.2C290.6 96.4 290.38 98.14 290.26 98.65C290.01 99.75 289.74 100.85 289.43 101.94C288.89 103.86 288.21 105.71 287.55 107.58C286.9 108.77 286.36 110.04 285.71 111.24C285.62 111.41 285.51 111.58 285.42 111.76C286 107.78 286.4 103.8 286.59 99.81C287.4 82.74 282.32 66.19 273.71 51.58C264.97 36.76 254.75 20.72 237.69 15.11C225.76 11.19 210.95 19.66 208.17 31.87C205.43 43.91 211.01 55.05 221.7 60.1C221.73 60.13 221.76 60.15 221.8 60.18C243.07 68.86 249.67 151.72 214.11 157.58C212.44 155.36 210.81 153.11 209.32 150.76C209.04 150.31 208.09 149.05 207.34 147.86C207 146.93 206.69 145.99 206.43 145.04C206.29 144.36 206.19 143.89 206.12 143.6C206.06 141.96 206.02 140.33 206.06 138.69C206.15 135.3 206.51 131.94 206.86 128.57C206.93 128.12 207 127.67 207.08 127.23C207.41 125.32 207.78 123.42 208.21 121.53C208.94 118.31 212.26 108.46 212.93 107.18C213.69 105.74 214.49 104.32 215.36 102.94C216.14 101.7 220.69 95.96 216.42 101.18C220.57 96.11 223.45 91 223.45 84.21C223.45 78.32 220.84 71.29 216.42 67.24C207.62 59.17 190.97 56.87 182.48 67.24C180.51 69.65 178.7 72.11 177.02 74.6C177.02 74.55 177.03 74.5 177.04 74.44C177.04 74.44 177.04 74.43 177.04 74.42C179.42 59.59 182.21 44.88 185.25 30.17C187.78 17.91 181.69 3.65003 168.49 0.650028C156.49 -2.07997 141.68 4.26003 138.97 17.41C136.46 29.56 133.97 41.72 131.96 53.97C127.42 48.87 120.87 45.54 114.07 45.84C100.68 46.44 90.5501 56.38 90.0701 69.84C89.1301 96.34 97.6901 121.5 108.9 145.13C109.67 146.75 110.46 148.36 111.25 149.96C109.77 148.46 108.32 146.94 106.88 145.4C103.93 142.24 101.06 139.01 98.2801 135.69C97.16 134.36 96.0601 133.02 94.9701 131.67C94.5201 131.12 94.0801 130.56 93.6401 130C93.5501 129.89 93.48 129.79 93.3801 129.66C91.0301 126.43 88.6001 123.24 86.4301 119.88C86.0201 119.24 84.9401 117.87 84.1401 116.57C84.1401 116.51 84.1401 116.44 84.1301 116.38C84.51 117.22 84.5001 117 84.0801 115.69C82.9801 103.56 73.1701 92.18 60.1601 92.76C47.6701 93.32 35.5101 103.33 36.1601 116.76C36.8101 130.26 42.5701 141.15 50.3801 151.79C57.4001 161.36 64.8301 170.67 72.9301 179.35C78.9801 185.83 85.3901 191.97 92.1201 197.74C84.9501 195.78 77.9501 193.36 71.0201 190.65C70.9001 190.59 70.7701 190.54 70.6301 190.47C69.5301 189.96 68.4201 189.47 67.3201 188.97C65.1101 187.96 62.9101 186.94 60.7001 185.96C54.3201 183.14 47.8901 180.37 41.2101 178.32C29.2001 174.65 14.5101 182.69 11.6901 195.08C8.73005 208.06 15.6001 220.67 28.4501 224.6C31.1101 225.42 33.6901 226.41 36.3101 227.33C36.3401 227.33 36.3501 227.35 36.3801 227.35C36.4101 227.36 36.4401 227.38 36.4701 227.39C37.5801 227.89 38.6801 228.38 39.7901 228.89C45.9701 231.7 52.1601 234.47 58.4601 237.01C68.0601 240.89 77.98 243.96 88.1001 246.14C109.15 250.66 130.29 251.74 151.44 248.69C161.59 251.96 173.21 253.82 185.57 253.82C205.7 253.82 223.88 248.88 236.89 240.94C265.93 237.1 295.76 232.61 320.77 216.27C333.92 207.68 346.03 197.04 357.14 185.96C362.78 180.33 368.1 174.5 372.98 168.19C379.95 159.17 383.33 150.03 384.81 138.72C385.55 133.09 381.59 125.56 377.78 121.75L377.77 121.73ZM222.75 61.31C222.48 60.96 222.25 60.65 222.03 60.37C222.51 60.78 222.88 61.17 222.75 61.31ZM83.2001 114.11C83.5701 115.03 83.8601 115.72 84.0601 116.17C84.08 116.27 84.1001 116.38 84.1201 116.48C83.5501 115.55 83.1301 114.66 83.2001 114.11ZM206.41 145.59C206.7 146.31 207 147.04 207.29 147.76C206.72 146.83 206.28 145.97 206.41 145.59Z" fill="url(#paint0_radial_121_10)"/>
<path d="M278 190.44C263.43 178.46 240.37 184.84 225.61 192.81C215.09 198.49 206.03 206.06 197.6 214.5C191.41 205.74 182.82 198.88 172.78 194.6C156.82 187.78 134.6 180.43 119.15 191.52C108.79 198.96 105.51 213.29 109.22 225.58C112.18 235.4 119.69 243.13 127.61 248.68C143.08 259.52 161.73 266.73 180.36 262.83C181.2 262.65 207.66 259.33 225.75 255.03C243.23 250.87 252.31 243.3 259.9 241.32C268.19 239.16 276.18 235.18 281.55 227.91C289.85 216.68 289.19 199.64 278.01 190.44H278Z" fill="#045631"/>
</g>
<defs>
<radialGradient id="paint0_radial_121_10" cx="0" cy="0" r="1" gradientUnits="userSpaceOnUse" gradientTransform="translate(197.954 126.923) rotate(88.4384) scale(130.125 191.702)">
<stop stop-color="#FEDF3C"/>
<stop offset="1" stop-color="#F1B009"/>
</radialGradient>
<clipPath id="clip0_121_10">
<rect width="418" height="2052" fill="white"/>
</clipPath>
</defs>
</svg>
