<svg width="373" height="270" viewBox="0 0 373 270" fill="none" xmlns="http://www.w3.org/2000/svg">
<path d="M369.946 203.872C363.829 194.386 349.124 188.235 338.863 195.721C332.928 200.046 326.874 204.217 320.594 208.024C317.44 209.941 314.241 211.767 310.978 213.494C308.133 214.993 304.28 217.773 301.08 218.264C304.116 217.001 304.489 216.828 302.189 217.764C301.226 218.146 300.262 218.509 299.29 218.854C297.836 219.381 296.372 219.881 294.9 220.345C291.492 221.417 288.029 222.325 284.521 223.016C283.794 223.161 283.057 223.288 282.33 223.407C281.058 223.516 279.785 223.634 278.504 223.697C274.996 223.861 271.542 223.679 268.052 223.434C267.37 223.307 266.688 223.188 266.007 223.052C265.043 222.852 264.089 222.625 263.144 222.389C272.423 219.49 281.539 215.929 290.228 211.686C302.362 205.761 313.877 196.539 320.076 184.319C325.447 173.733 323.212 159.205 311.923 153.244C301.571 147.775 286.584 150.083 280.84 161.395C280.303 162.458 279.713 163.448 279.113 164.466C278.522 165.093 277.94 165.738 277.313 166.328C277.268 166.374 277.213 166.419 277.168 166.465C275.505 167.246 273.623 169.045 272.133 169.908C270.16 171.053 268.124 172.089 266.061 173.052C265.443 173.343 264.825 173.624 264.198 173.906C263.725 174.115 263.462 174.233 263.407 174.26C263.135 174.342 262.889 174.415 262.726 174.469C262.017 174.742 261.308 175.005 260.59 175.269C267.479 170.126 274.241 164.756 279.822 158.333C288.592 148.238 294.782 136.753 301.099 125.069C307.333 113.548 313.568 102.027 319.803 90.5147C325.457 80.0658 322.748 65.292 311.651 59.4406C301.062 53.8436 286.602 56.4331 280.567 67.5907C274.614 78.5848 268.661 89.5789 262.717 100.573C261.481 102.863 260.254 105.161 259.008 107.451C261.617 95.0486 262.062 82.2192 259.79 69.1444C257.754 57.4053 242.73 49.7549 231.842 53.2803C224.28 55.7244 219.318 60.7581 217.009 67.091C212.165 49.9366 205.466 33.282 198.532 16.691C196.141 10.9759 193.669 6.37837 188.089 3.1165C183.217 0.263497 176.037 -0.935855 170.584 0.826829C165.085 2.60768 159.777 6.01493 157.005 11.2666C154.36 16.273 152.415 23.2783 154.715 28.7663C160.122 41.6956 165.53 54.6432 169.966 67.9451C171.992 74.0327 173.801 80.2021 175.31 86.4351C172.738 85.4447 170.02 84.8996 167.466 85.0177C161.586 85.2812 155.496 87.2074 151.397 91.6686C151.333 91.7413 151.27 91.814 151.206 91.8867C151.252 91.3597 151.297 90.8418 151.352 90.3148C151.479 89.0882 151.415 86.1353 151.961 85.0268C151.533 88.1342 151.506 88.3886 151.879 85.79C152.051 84.6179 152.233 83.4458 152.415 82.2737C153.06 78.185 153.769 74.0963 154.478 70.0167C155.551 63.8564 155.451 58.0959 152.188 52.5171C149.434 47.8014 144.026 43.313 138.609 42.0773C127.566 39.5604 112.833 45.4209 110.661 57.9414C108.634 69.5987 106.498 81.4651 105.571 93.3586C103.745 82.8643 94.2377 73.6874 83.1676 74.1872C70.8886 74.7414 60.4092 84.1727 60.4456 96.9022C60.4819 108.641 65.0263 119.49 71.9702 128.776C78.3505 137.299 85.0762 145.794 92.4654 153.472C97.7914 159.014 103.863 164.193 110.47 168.518C107.807 168.518 105.153 168.445 102.49 168.282C101.236 168.2 99.9818 168.1 98.7276 167.982C98.0186 167.918 97.3097 167.846 96.6008 167.764C99.9455 167.428 96.0191 167.655 94.9194 167.464C93.2743 167.182 91.6383 166.864 90.0023 166.528C87.2848 165.965 84.5763 165.329 81.886 164.62C75.9602 163.075 70.1252 161.231 64.3538 159.187C58.5642 157.142 52.8564 154.862 47.1759 152.536C47.0124 152.472 46.876 152.409 46.7488 152.363C45.6127 151.872 44.4766 151.391 43.3405 150.9C40.2685 149.574 37.1965 148.229 34.1335 146.884C28.3349 144.349 22.9907 142.841 16.6285 144.595C11.357 146.048 5.64926 150.119 3.04987 155.034C-2.14892 164.865 -0.422045 181.029 11.2025 186.108C35.5877 196.785 59.6821 206.979 85.8215 211.595C84.2582 212.058 82.6859 212.494 81.1044 212.903C78.2778 213.621 75.4239 214.248 72.5609 214.775C71.4612 214.975 70.3615 215.147 69.2617 215.329C69.0527 215.356 68.8345 215.384 68.6255 215.402C63.2813 215.956 57.8916 216.174 52.5202 216.047C49.8299 215.983 47.1487 215.82 44.4675 215.574C44.3402 215.565 44.0585 215.538 43.7131 215.502C43.8949 215.474 40.4412 215.02 39.8413 214.911C33.7064 213.812 27.8804 213.957 22.3363 217.201C17.6192 219.954 13.1293 225.36 11.8933 230.775C9.36658 241.869 15.2561 256.47 27.7623 258.715C55.2104 263.639 83.8038 261.704 109.825 251.273C126.894 244.431 142.136 235.246 155.505 223.615C158.123 226.55 161.549 228.658 165.73 229.258C169.148 229.739 172.556 230.157 175.964 230.503C188.034 237.272 200.213 243.841 212.519 250.165C230.006 259.151 247.366 266.629 267.052 268.764C301.471 272.498 334.945 254.526 361.812 234.928C366.738 231.339 370.582 227.441 372.255 221.353C373.754 215.92 373.073 208.678 369.964 203.853L369.946 203.872ZM266.507 172.952C266.125 173.524 264.507 173.942 263.444 174.242C263.68 174.151 264.698 173.715 266.507 172.952Z" fill="url(#paint0_radial_121_2)"/>
<path d="M247.911 181.175C242.349 170.308 229.852 163.075 217.709 166.574C208.002 169.363 199.259 176.514 191.96 183.201C188.416 186.445 184.535 190.415 181.917 194.822C176.582 201.618 172.619 209.441 170.356 217.982C163.858 209.332 155.433 202.1 145.58 197.511C132.529 191.424 109.234 185.2 103.763 204.435C99.5819 219.127 109.225 233.765 122.222 240.034C128.475 243.05 135.092 244.659 141.89 245.876C149.316 247.212 156.987 248.366 164.549 247.902C165.621 247.839 166.684 247.739 167.748 247.621C168.993 249.929 170.756 251.973 172.847 253.463C186.144 262.922 203.885 251.4 215.482 244.232C226.689 237.299 237.913 229.303 245.366 218.246C252.81 207.206 254.01 193.077 247.92 181.175H247.911Z" fill="#128950"/>
<defs>
<radialGradient id="paint0_radial_121_2" cx="0" cy="0" r="1" gradientUnits="userSpaceOnUse" gradientTransform="translate(186.633 108.654) rotate(89.9972) scale(160.605 222.338)">
<stop stop-color="#FFEFA5"/>
<stop offset="1" stop-color="#FCCC21"/>
</radialGradient>
</defs>
</svg>
