<svg width="390" height="740" viewBox="0 0 390 740" fill="none" xmlns="http://www.w3.org/2000/svg">
<g clip-path="url(#clip0_147_270)">
<path d="M169.242 245.804C186.402 276.015 201.471 303.899 206.561 338.599C208.788 353.782 209.451 373.126 208.57 389.835C207.733 405.681 203.589 421.381 197.736 436.973C192.01 452.228 184.975 466.911 178.268 482.921C171.669 498.64 165.825 514.686 161.153 531.086C151.91 563.523 146.939 597.904 149.974 631.622C153.219 667.73 164.462 703.547 186.448 732.74C191.01 738.792 199.217 742.553 206.343 737.956C212.332 734.094 216.45 724.563 211.56 718.066C206.67 711.57 202.616 705.31 198.863 698.477C197.172 695.397 195.582 692.262 194.091 689.082C192.073 684.775 192.001 684.612 190.283 680.06C187.529 672.755 185.248 665.268 183.412 657.681C182.585 654.246 181.849 650.785 181.203 647.305C180.831 645.315 180.494 643.316 180.185 641.317C180.067 640.563 179.958 639.818 179.849 639.064C179.64 637.592 179.949 640.154 179.676 637.655C175.995 604.283 179.54 573.881 188.283 542.034C192.801 525.589 198.508 509.488 205.016 493.733C207.424 487.9 211.205 479.441 214.305 472.345C217.867 464.204 221.394 456.035 224.602 447.74C230.973 431.294 235.445 414.503 237.118 396.913C238.79 379.213 238.126 361.005 236.209 343.351C233.982 322.916 229.474 303.291 221.521 284.31C213.805 265.884 204.198 248.475 194.346 231.121C190.583 224.506 180.994 221.689 174.45 225.905C167.906 230.121 165.216 238.716 169.233 245.794L169.242 245.804Z" fill="#21BF68"/>
<path d="M386.946 203.872C380.829 194.386 366.124 188.235 355.862 195.721C349.927 200.046 343.874 204.217 337.594 208.024C334.44 209.941 331.241 211.767 327.978 213.494C325.133 214.993 321.28 217.773 318.08 218.264C321.116 217.001 321.489 216.828 319.189 217.764C318.226 218.146 317.262 218.509 316.29 218.854C314.836 219.381 313.372 219.881 311.9 220.345C308.492 221.417 305.029 222.325 301.521 223.016C300.793 223.161 300.057 223.288 299.33 223.407C298.058 223.516 296.785 223.634 295.504 223.697C291.996 223.861 288.542 223.679 285.052 223.434C284.37 223.307 283.688 223.188 283.007 223.052C282.043 222.852 281.089 222.625 280.144 222.389C289.423 219.49 298.539 215.929 307.228 211.686C319.362 205.761 330.877 196.539 337.076 184.319C342.447 173.733 340.212 159.205 328.923 153.244C318.571 147.775 303.584 150.083 297.84 161.395C297.303 162.458 296.713 163.448 296.113 164.466C295.522 165.093 294.94 165.738 294.313 166.328C294.268 166.374 294.213 166.419 294.168 166.465C292.504 167.246 290.623 169.045 289.133 169.908C287.16 171.053 285.124 172.089 283.061 173.052C282.443 173.343 281.825 173.624 281.198 173.906C280.725 174.115 280.462 174.233 280.407 174.26C280.135 174.342 279.889 174.415 279.726 174.469C279.017 174.742 278.308 175.005 277.59 175.269C284.479 170.126 291.241 164.756 296.822 158.333C305.592 148.238 311.782 136.753 318.099 125.069C324.333 113.548 330.568 102.027 336.803 90.5147C342.456 80.0658 339.748 65.292 328.651 59.4406C318.062 53.8436 303.602 56.4331 297.567 67.5907C291.614 78.5848 285.661 89.5789 279.717 100.573C278.48 102.863 277.253 105.161 276.008 107.451C278.617 95.0486 279.062 82.2192 276.79 69.1444C274.754 57.4053 259.73 49.7549 248.842 53.2803C241.28 55.7244 236.318 60.7581 234.009 67.091C229.165 49.9366 222.466 33.282 215.532 16.691C213.141 10.9759 210.669 6.37837 205.088 3.11649C200.217 0.26349 193.037 -0.935862 187.583 0.826821C182.085 2.60768 176.777 6.01493 174.005 11.2666C171.36 16.273 169.415 23.2783 171.714 28.7663C177.122 41.6956 182.53 54.6432 186.965 67.9451C188.992 74.0327 190.801 80.2021 192.31 86.4351C189.738 85.4447 187.02 84.8996 184.466 85.0177C178.586 85.2812 172.496 87.2074 168.397 91.6686C168.333 91.7413 168.27 91.814 168.206 91.8867C168.252 91.3597 168.297 90.8418 168.352 90.3148C168.479 89.0882 168.415 86.1353 168.961 85.0268C168.533 88.1342 168.506 88.3886 168.879 85.79C169.051 84.6179 169.233 83.4458 169.415 82.2737C170.06 78.185 170.769 74.0963 171.478 70.0167C172.551 63.8564 172.451 58.0959 169.188 52.5171C166.434 47.8014 161.026 43.313 155.609 42.0773C144.566 39.5604 129.833 45.4209 127.661 57.9414C125.634 69.5987 123.498 81.4651 122.571 93.3586C120.745 82.8643 111.238 73.6874 100.168 74.1872C87.8885 74.7414 77.4092 84.1727 77.4455 96.9022C77.4819 108.641 82.0263 119.49 88.9701 128.776C95.3504 137.299 102.076 145.794 109.465 153.472C114.791 159.014 120.863 164.193 127.47 168.518C124.807 168.518 122.153 168.445 119.49 168.282C118.236 168.2 116.982 168.1 115.728 167.982C115.019 167.918 114.31 167.846 113.601 167.764C116.945 167.428 113.019 167.655 111.919 167.464C110.274 167.182 108.638 166.864 107.002 166.528C104.285 165.965 101.576 165.329 98.886 164.62C92.9601 163.075 87.1251 161.231 81.3537 159.187C75.5641 157.142 69.8564 154.862 64.1759 152.536C64.0123 152.472 63.876 152.409 63.7487 152.363C62.6126 151.872 61.4765 151.391 60.3404 150.9C57.2684 149.574 54.1964 148.229 51.1335 146.884C45.3348 144.349 39.9906 142.841 33.6285 144.595C28.357 146.048 22.6492 150.119 20.0498 155.034C14.851 164.865 16.5779 181.029 28.2025 186.108C52.5877 196.785 76.6821 206.979 102.821 211.595C101.258 212.058 99.6858 212.494 98.1043 212.903C95.2777 213.621 92.4239 214.248 89.5609 214.775C88.4611 214.975 87.3614 215.147 86.2617 215.329C86.0526 215.356 85.8345 215.384 85.6254 215.402C80.2812 215.956 74.8916 216.174 69.5201 216.047C66.8298 215.983 64.1486 215.82 61.4674 215.574C61.3402 215.565 61.0584 215.538 60.7131 215.502C60.8948 215.474 57.4411 215.02 56.8412 214.911C50.7063 213.812 44.8804 213.957 39.3362 217.201C34.6191 219.954 30.1293 225.36 28.8932 230.775C26.3665 241.869 32.2561 256.47 44.7622 258.715C72.2104 263.639 100.804 261.704 126.825 251.273C143.894 244.431 159.136 235.246 172.505 223.615C175.123 226.55 178.549 228.658 182.73 229.258C186.147 229.739 189.556 230.157 192.964 230.503C205.034 237.272 217.213 243.841 229.519 250.165C247.006 259.151 264.366 266.629 284.052 268.764C318.471 272.498 351.945 254.526 378.812 234.928C383.738 231.339 387.582 227.441 389.255 221.353C390.754 215.92 390.073 208.678 386.964 203.853L386.946 203.872ZM283.507 172.952C283.125 173.524 281.507 173.942 280.444 174.242C280.68 174.151 281.698 173.715 283.507 172.952Z" fill="url(#paint0_radial_147_270)"/>
<path d="M264.911 181.175C259.349 170.308 246.851 163.076 234.709 166.574C225.002 169.363 216.259 176.514 208.96 183.201C205.416 186.445 201.535 190.415 198.917 194.822C193.582 201.618 189.619 209.441 187.356 217.982C180.858 209.332 172.432 202.1 162.58 197.511C149.529 191.424 126.234 185.2 120.763 204.435C116.582 219.127 126.225 233.765 139.222 240.034C145.475 243.05 152.092 244.659 158.89 245.876C166.316 247.212 173.987 248.366 181.549 247.902C182.621 247.839 183.684 247.739 184.748 247.621C185.993 249.929 187.756 251.973 189.847 253.463C203.144 262.922 220.885 251.4 232.482 244.232C243.689 237.299 254.913 229.303 262.366 218.246C269.81 207.206 271.01 193.077 264.92 181.175H264.911Z" fill="#128950"/>
<path d="M196.727 322.344C196.509 321.853 196.245 321.381 195.9 320.926C185.938 307.97 171.233 300.083 154.664 300.474C144.912 300.71 143.276 313.421 149.838 317.437C137.068 319.291 124.535 322.725 112.919 327.895C103.385 332.139 88.6156 344.341 98.7042 355.435C99.7585 356.598 101.031 357.579 102.403 358.388C98.6042 363.594 95.1777 369.391 97.7589 376.042C100.267 382.529 107.52 384.883 112.946 380.049C119.663 374.07 127.525 369.119 135.959 365.929C137.259 365.439 138.568 364.994 139.885 364.557C137.468 366.12 134.996 367.601 132.478 368.991C123.726 373.861 129.697 389.426 139.486 385.601C165.125 375.57 182.366 354.672 198.408 333.22C201.317 329.331 199.835 325.033 196.736 322.344H196.727ZM166.852 343.896C166.77 343.859 166.688 343.832 166.607 343.805C166.752 343.769 166.888 343.732 167.034 343.696C166.97 343.769 166.906 343.832 166.852 343.905V343.896ZM114.991 371.881C115.019 371.826 115.055 371.781 115.082 371.726C114.81 372.435 114.773 372.489 114.991 371.881Z" fill="#21BF68"/>
<path d="M13.0969 571.427C26.6392 553.691 45.1258 540.735 66.639 534.538C71.965 533.003 77.3911 532.031 82.8989 531.385C84.5076 531.195 86.1163 531.049 87.725 530.94C86.9706 530.586 86.2163 530.222 85.471 529.85C78.9816 526.606 72.4922 523.372 66.0028 520.128C59.3862 516.821 60.5041 504.509 68.3295 503.5C94.3416 500.139 120.508 505.245 142.885 519.165C146.348 521.318 147.475 524.644 147.066 527.778C148.211 531.667 147.575 535.983 145.93 539.808C141.049 551.157 133.996 562.205 127.316 572.581C116.064 590.063 100.976 611.497 78.0727 612.414C69.9746 612.741 66.3118 602.193 71.7651 596.805C73.9828 594.615 76.155 592.398 78.3272 590.172C72.7194 592.598 67.1116 595.06 62.0764 598.685C51.4335 606.363 42.7173 616.04 30.9564 621.782C23.849 626.089 15.8236 628.069 7.32557 626.143C3.66278 625.316 0.990677 621.6 0.563504 617.83C-1.51783 611.933 2.44488 605.618 6.87112 600.957C15.0147 592.38 25.7122 587.01 36.6914 582.803C32.1834 583.276 27.6935 583.93 23.2219 584.829C16.3871 586.201 7.93451 578.196 13.106 571.427H13.0969Z" fill="#21BF68"/>
<path d="M247.897 369.064C247.424 359.078 253.95 351.964 263.502 350.283C279.535 347.466 296.222 347.803 312.182 350.983C314.99 351.546 317.626 352.836 319.853 354.626C332.368 358.824 340.884 368.119 348.61 378.504C354.008 385.764 352.327 397.558 344.62 402.591C339.094 406.198 332.413 406.598 326.915 403.927C340.43 420.927 351.263 440.198 360.298 460.342C363.997 468.592 358.744 479.822 350.246 482.593C340.902 485.646 331.941 481.376 327.978 472.544C326.087 468.338 324.133 464.158 322.07 460.024C321.198 458.27 320.298 456.535 319.389 454.808C319.216 454.49 318.98 454.054 318.735 453.618C318.262 452.764 317.78 451.91 317.299 451.065C315.399 447.73 313.418 444.432 311.364 441.198C309.037 447.276 303.175 452.219 296.685 452.528C286.969 452.991 279.235 446.522 277.899 436.927C277.59 434.701 277.253 432.484 276.863 430.276C276.817 430.013 276.545 428.686 276.308 427.505C275.617 427.641 274.909 427.741 274.2 427.769C264.611 428.223 256.595 421.781 255.413 412.168C254.931 408.215 252.795 395.668 252.541 392.896C252.068 387.781 248.051 372.062 247.906 369.055L247.897 369.064Z" fill="#21BF68"/>
</g>
<defs>
<radialGradient id="paint0_radial_147_270" cx="0" cy="0" r="1" gradientUnits="userSpaceOnUse" gradientTransform="translate(203.633 108.654) rotate(89.9972) scale(160.605 222.338)">
<stop stop-color="#FFEFA5"/>
<stop offset="1" stop-color="#FCCC21"/>
</radialGradient>
<clipPath id="clip0_147_270">
<rect width="390" height="740" fill="white"/>
</clipPath>
</defs>
</svg>
