<svg width="241" height="207" viewBox="0 0 241 207" fill="none" xmlns="http://www.w3.org/2000/svg">
<path d="M236.2 133.49C230.85 128.14 222.49 128.54 217.11 133.49C207.02 142.76 191.37 144.26 176.6 144.79C173.23 144.91 169.86 145 166.49 145.08C177.13 139.07 186.62 130.81 194.88 121.42C202.71 112.53 210.08 103.02 216.89 93.33C223.99 83.22 229.13 71.88 229.29 59.34C229.52 41.96 202.52 41.95 202.29 59.34C202.19 66.63 197.97 73.52 193.09 80.39C191.42 82.74 189.7 85.06 187.95 87.37C193.93 72.65 194.47 57.06 193.86 40.98C193.58 33.69 187.85 27.48 180.36 27.48C173.26 27.48 166.58 33.66 166.86 40.98C167.45 56.6 167.56 70.45 159.36 84.22C158.86 85.05 158.36 85.88 157.85 86.71C158.64 80.27 158.97 73.77 158.71 67.22C157.7 41.87 148.19 11.14 122.87 0.710002C116.13 -2.07 108.03 3.72 106.26 10.14C104.13 17.89 108.92 23.96 115.69 26.75C114.24 26.15 116.71 27.52 117.07 27.77C117.16 27.83 117.22 27.88 117.29 27.92C117.36 28 117.51 28.16 117.8 28.43C119.47 30 120.08 30.73 120.99 32.08C123.45 35.73 125.44 39.75 126.95 43.87C128.62 48.44 129.81 53.06 130.6 57.73C128.42 55.85 125.6 54.7 122.24 54.7C117.27 54.7 111.85 58.11 109.67 62.84C109.62 58.4 109.64 53.99 109.69 49.67C109.91 32.29 82.91 32.28 82.69 49.67C82.56 60.12 82.74 70.62 83.53 81.01C77.88 68.28 74.84 54.42 77.27 41.1C78.57 33.93 75.31 26.55 67.84 24.49C61.29 22.69 52.54 26.71 51.23 33.92C46.48 60.03 53.61 85.83 67.38 108.16C67.84 108.9 68.32 109.64 68.79 110.37C63.57 106.97 58.38 103.54 53.28 99.97C48.43 96.58 42.56 91.82 40.97 87.61C38.4 80.79 31.86 76.12 24.36 78.18C17.82 79.98 12.35 87.93 14.93 94.79C20.92 110.69 34.8 120.87 48.94 129.89C37.39 126.55 25.56 124.21 13.47 124.99C6.19 125.46 -0.0299988 130.86 -0.0299988 138.49C-0.0299988 145.44 6.16 152.46 13.47 151.99C28.6 151.02 42.3 155.86 57.21 160.86C63.03 162.81 68.92 164.71 74.87 166.29C72.26 167.55 69.62 168.76 67 169.98C53.89 176.06 40.4 181.05 25.81 179.63C18.54 178.92 12.31 186.34 12.31 193.13C12.31 201.02 18.52 205.92 25.81 206.63C45.11 208.52 63.46 201.25 80.62 193.29C88.45 189.66 96.54 186.12 103.63 181.14C107.53 178.41 111.05 175.44 114.3 172.2C136.57 172.34 158.95 172.81 181.2 171.59C201.17 170.49 220.99 166.51 236.15 152.59C241.52 147.66 241.15 138.5 236.15 133.5L236.2 133.49Z" fill="url(#paint0_radial_131_21)"/>
<path d="M131.43 144.77C129.27 145.99 127.3 147.51 125.47 149.17C111.31 145.46 97.24 139.54 83.18 147.74C75.22 152.38 69.9 161.31 72.34 170.64C74.81 180.1 83.08 185.67 92.39 186.94C104.06 188.53 117.65 188.67 128.69 183.63C130.41 183.81 132.18 183.74 133.94 183.39C141.75 181.81 149.46 179.82 157.03 177.3C166.9 174.01 179.04 170.11 179.04 157.47C179.04 134.09 145.35 136.89 131.43 144.77Z" fill="#128950"/>
<defs>
<radialGradient id="paint0_radial_131_21" cx="0" cy="0" r="1" gradientUnits="userSpaceOnUse" gradientTransform="translate(120 83.5) rotate(89.9977) scale(123.433 143.195)">
<stop stop-color="#FFEFA5"/>
<stop offset="1" stop-color="#FCCC21"/>
</radialGradient>
</defs>
</svg>
