<svg width="201" height="173" viewBox="0 0 201 173" fill="none" xmlns="http://www.w3.org/2000/svg">
<path d="M196.59 87.93C190.29 81.63 181.78 82.92 175.38 87.93C176.26 87.23 175.97 87.42 174.51 88.5C173.63 89.12 172.73 89.72 171.82 90.29C170.46 91.16 169.07 91.98 167.67 92.76C166.26 93.54 164.83 94.28 163.38 94.98C162.61 95.35 161.84 95.7 161.06 96.05C160.93 96.09 160.43 96.29 159.55 96.65C159.37 96.71 159.19 96.77 159.01 96.84C171.02 83.69 181.15 67.2 177 49.1C175.19 41.2 166.12 36.54 158.55 38.62C155.72 39.4 153.39 40.92 151.6 42.9C151.39 38.96 150.82 35 149.84 31.04C147.91 23.17 139.04 18.46 131.39 20.56C123.38 22.76 118.98 31.12 120.91 39.01C121.14 39.94 121.35 40.88 121.55 41.82C121.59 42.02 121.63 42.19 121.66 42.35C121.66 42.45 121.66 42.6 121.68 42.82C121.8 44.74 121.86 46.64 121.77 48.56C121.74 49.27 121.64 50.49 121.67 50.53C121.56 51.16 121.44 51.79 121.31 52.42C120.86 54.54 120.28 56.62 119.56 58.66C119.51 58.8 119.16 59.67 118.96 60.19C118.71 60.68 118.28 61.56 118.21 61.69C117.21 63.61 116.07 65.44 114.85 67.23C114.32 68.01 113.53 68.77 114.56 67.61C114.39 67.81 114.2 68 114.03 68.2C112.81 65.75 110.93 63.67 108.38 62.43C108.19 62.34 108.04 62.26 107.91 62.2C107.69 61.35 107.47 60.5 107.26 59.64C107.23 59.51 107.2 59.43 107.18 59.36C107.18 59.23 107.18 59.07 107.17 58.88C107.14 57.99 107.08 57.1 107.07 56.2C107.03 53.45 107.13 50.69 107.31 47.94C107.94 38.44 110.45 28.59 114.15 18.9C116.96 11.56 111.05 2.13 103.67 0.450002C95.1 -1.5 88.22 3.06 85.22 10.93C82.79 17.29 80.91 23.87 79.56 30.56C79.17 23.12 72.1 16.32 64.58 16.66C56.2 17.04 49.9 23.25 49.58 31.66C48.9 49.44 49.48 67.56 58.92 83.25C61.66 87.8 64.9 91.93 68.56 95.63C66.88 95.33 65.12 94.99 63.21 94.59C48.74 91.56 35.1 86.84 22.47 80.42C15.25 76.75 6.19999 78.52 1.94999 85.8C-1.96001 92.49 0.0799942 102.64 7.32999 106.32C23.58 114.58 40.86 120.86 58.8 124.22C61.84 124.79 64.9 125.29 67.97 125.73C64.25 128.4 60.22 130.81 55.45 133.28C50.15 136.03 47.4 137.19 41.08 139.15C38.5 139.95 35.9 140.66 33.27 141.27C31.69 141.63 30.11 141.96 28.51 142.26C28.07 142.34 23.71 143.01 26.09 142.7C18.34 143.7 10.7 148.88 11.09 157.7C11.42 164.97 17.75 173.77 26.09 172.7C55.5 168.91 82.65 156.18 103.17 134.47C103.38 134.25 103.56 134.02 103.75 133.79C106.42 134.24 109.18 134.43 111.97 134.42C122.1 134.37 132.21 133.42 142.22 131.93C162.23 128.95 180.62 121.64 196.57 109.15C202.95 104.15 201.81 93.18 196.57 87.94L196.59 87.93Z" fill="url(#paint0_radial_131_20)"/>
<path d="M128.57 108.76C134.59 109.1 138.42 112.48 140.62 117.94L140.61 117.93C143.81 125.86 138.82 134.97 131.7 138.72C120.66 144.496 103.733 146.267 96.65 146.43C87.85 147.08 78.24 146.98 69.62 144.86C59.39 142.35 51.01 132.61 54.72 121.67C56.04 117.78 59.1 113.72 63.45 112.94C77.57 110.43 90.82 111.76 103.97 116.77C110.87 111.31 119.63 108.26 128.57 108.76Z" fill="#045631"/>
<defs>
<radialGradient id="paint0_radial_131_20" cx="0" cy="0" r="1" gradientUnits="userSpaceOnUse" gradientTransform="translate(100.467 86.3947) rotate(88.7672) scale(88.5797 103.042)">
<stop stop-color="#FEDF3C"/>
<stop offset="1" stop-color="#F1B009"/>
</radialGradient>
</defs>
</svg>
