<svg width="268" height="683" viewBox="0 0 268 683" fill="none" xmlns="http://www.w3.org/2000/svg">
<g clip-path="url(#clip0_147_293)">
<path d="M116.4 187.9C131.78 211.06 138.89 238.09 140.58 265.03C142.49 295.52 138.32 325.64 132.81 355.52C126.61 389.15 119.41 422.57 116.26 456.68C113.17 490.18 113.42 523.94 116.02 557.47C119 595.96 124.96 634.21 132.57 672.04C134.11 679.72 143.24 684.14 150.41 682.17C158.41 679.97 162.09 672.04 160.54 664.33C147.33 598.63 139.45 531.46 144.62 464.42C149.64 399.31 172.62 335.87 169.85 270.06C168.42 236.13 160.43 201.85 141.45 173.27C137.12 166.75 128.65 163.95 121.61 168.07C115.14 171.86 112.06 181.36 116.41 187.91L116.4 187.9Z" fill="#21BF68"/>
<path d="M236.2 133.49C230.85 128.14 222.49 128.54 217.11 133.49C207.02 142.76 191.37 144.26 176.6 144.79C173.23 144.91 169.86 145 166.49 145.08C177.13 139.07 186.62 130.81 194.88 121.42C202.71 112.53 210.08 103.02 216.89 93.3301C223.99 83.2201 229.13 71.8801 229.29 59.3401C229.52 41.9601 202.52 41.9501 202.29 59.3401C202.19 66.6301 197.97 73.5201 193.09 80.3901C191.42 82.7401 189.7 85.0601 187.95 87.3701C193.93 72.6501 194.47 57.0601 193.86 40.9801C193.58 33.6901 187.85 27.4801 180.36 27.4801C173.26 27.4801 166.58 33.6601 166.86 40.9801C167.45 56.6001 167.56 70.4501 159.36 84.2201C158.86 85.0501 158.36 85.8801 157.85 86.7101C158.64 80.2701 158.97 73.7701 158.71 67.2201C157.7 41.8701 148.19 11.1401 122.87 0.710105C116.13 -2.0699 108.03 3.72011 106.26 10.1401C104.13 17.8901 108.92 23.9601 115.69 26.7501C114.24 26.1501 116.71 27.5201 117.07 27.7701C117.16 27.8301 117.22 27.8801 117.29 27.9201C117.36 28.0001 117.51 28.1601 117.8 28.4301C119.47 30.0001 120.08 30.7301 120.99 32.0801C123.45 35.7301 125.44 39.7501 126.95 43.8701C128.62 48.4401 129.81 53.0601 130.6 57.7301C128.42 55.8501 125.6 54.7001 122.24 54.7001C117.27 54.7001 111.85 58.1101 109.67 62.8401C109.62 58.4001 109.64 53.9901 109.69 49.6701C109.91 32.2901 82.91 32.2801 82.69 49.6701C82.56 60.1201 82.74 70.6201 83.53 81.0101C77.88 68.2801 74.84 54.4201 77.27 41.1001C78.57 33.9301 75.31 26.5501 67.84 24.4901C61.29 22.6901 52.54 26.7101 51.23 33.9201C46.48 60.0301 53.61 85.8301 67.38 108.16C67.84 108.9 68.32 109.64 68.79 110.37C63.57 106.97 58.38 103.54 53.28 99.9701C48.43 96.5801 42.56 91.8201 40.97 87.6101C38.4 80.7901 31.86 76.1201 24.36 78.1801C17.82 79.9801 12.35 87.9301 14.93 94.7901C20.92 110.69 34.8 120.87 48.94 129.89C37.39 126.55 25.56 124.21 13.47 124.99C6.18997 125.46 -0.0300293 130.86 -0.0300293 138.49C-0.0300293 145.44 6.15997 152.46 13.47 151.99C28.6 151.02 42.3 155.86 57.21 160.86C63.03 162.81 68.92 164.71 74.87 166.29C72.26 167.55 69.62 168.76 67 169.98C53.89 176.06 40.4 181.05 25.81 179.63C18.54 178.92 12.31 186.34 12.31 193.13C12.31 201.02 18.52 205.92 25.81 206.63C45.11 208.52 63.46 201.25 80.62 193.29C88.45 189.66 96.54 186.12 103.63 181.14C107.53 178.41 111.05 175.44 114.3 172.2C136.57 172.34 158.95 172.81 181.2 171.59C201.17 170.49 220.99 166.51 236.15 152.59C241.52 147.66 241.15 138.5 236.15 133.5L236.2 133.49Z" fill="url(#paint0_radial_147_293)"/>
<path d="M131.43 144.77C129.27 145.99 127.3 147.51 125.47 149.17C111.31 145.46 97.24 139.54 83.18 147.74C75.22 152.38 69.9 161.31 72.34 170.64C74.81 180.1 83.08 185.67 92.39 186.94C104.06 188.53 117.65 188.67 128.69 183.63C130.41 183.81 132.18 183.74 133.94 183.39C141.75 181.81 149.46 179.82 157.03 177.3C166.9 174.01 179.04 170.11 179.04 157.47C179.04 134.09 145.35 136.89 131.43 144.77Z" fill="#128950"/>
<path d="M120.85 277.56C119.93 276.6 119 275.65 118.07 274.7C113.14 267.76 107.08 261.86 100.05 256.83C91.1301 250.45 81.0701 264.3 88.5401 271.75C88.5801 271.79 88.6101 271.82 88.6501 271.86C72.4301 270.29 56.1501 271.83 43.2401 282.43C40.0301 285.06 39.7801 290.57 41.7501 293.94C43.9601 297.72 48.3301 299.17 52.4801 298.31C54.9301 297.8 57.4001 297.35 59.8801 296.97C55.2201 300.78 51.4901 305.52 49.7601 311.69C47.4301 320.03 56.5301 326.09 63.7201 322.42C71.6401 318.38 79.6801 314.55 87.8501 311.03C91.7601 309.34 95.7101 307.74 99.6901 306.2C100.35 305.94 101.09 305.61 101.87 305.27C101.17 306.91 100.18 308.44 98.9301 309.78C90.6101 318.73 104.02 332.2 112.36 323.22C120.44 314.52 123.44 303.32 121.09 291.73C122.52 290.07 123.37 287.95 123.37 285.68C123.91 283.02 123.29 280.11 120.86 277.58L120.85 277.56Z" fill="#21BF68"/>
<path d="M261.21 449.09C266.49 447.02 268.62 442.98 267.85 437.4C265.66 421.58 253.42 409.42 240.21 401.65C233.39 397.64 226.11 394.48 218.58 392.03C227.37 388.65 226.31 373.31 215.29 373.68C203.82 374.07 193.15 376.72 182.68 381.33C181.46 381.87 180.49 382.73 179.76 383.78C173.46 385.74 168.37 390.43 165.63 397.29C161.81 406.88 163.11 418.15 163.5 428.24C164.19 446.1 165.18 469.47 182.85 479.35C189.42 483.02 200.07 476.74 196.81 468.62C193.55 460.51 191.47 452.1 191.26 443.34C191.21 441.4 191.1 439.33 191.35 437.4C191.37 437.25 191.52 436.74 191.67 436.2C192.61 436.74 193.9 437.44 194.13 437.62C196.5 439.49 198.91 441.99 200.63 444.47C202.94 447.82 201.46 448.73 201.26 452.78C200.8 462.55 212.34 470.65 220.42 463.13C220.51 463.05 220.7 462.83 220.95 462.53C221.05 462.86 221.14 463.17 221.23 463.47C223.73 471.85 230.57 476.68 238.62 479.21C245.07 481.24 252.68 482.32 258.74 478.59C267.72 473.05 265.18 462.85 260.1 455.71C258.7 453.74 257.3 451.77 255.9 449.81C257.7 449.97 259.52 449.77 261.23 449.09H261.21ZM191.99 434.78C191.99 434.72 191.99 434.67 191.99 434.65C192.02 434.69 192.02 434.73 191.99 434.78Z" fill="#21BF68"/>
</g>
<defs>
<radialGradient id="paint0_radial_147_293" cx="0" cy="0" r="1" gradientUnits="userSpaceOnUse" gradientTransform="translate(120 83.5001) rotate(89.9977) scale(123.433 143.195)">
<stop stop-color="#FFEFA5"/>
<stop offset="1" stop-color="#FCCC21"/>
</radialGradient>
<clipPath id="clip0_147_293">
<rect width="267.99" height="682.63" fill="white"/>
</clipPath>
</defs>
</svg>
