<svg width="241" height="207" viewBox="0 0 241 207" fill="none" xmlns="http://www.w3.org/2000/svg">
<path d="M4.78999 133.49C10.14 128.14 18.5 128.54 23.88 133.49C33.97 142.76 49.62 144.26 64.39 144.79C67.76 144.91 71.13 145 74.5 145.08C63.86 139.07 54.37 130.81 46.11 121.42C38.28 112.53 30.91 103.02 24.1 93.33C17 83.22 11.86 71.88 11.7 59.34C11.47 41.96 38.47 41.95 38.7 59.34C38.8 66.63 43.02 73.52 47.9 80.39C49.57 82.74 51.29 85.06 53.04 87.37C47.06 72.65 46.52 57.06 47.13 40.98C47.41 33.69 53.14 27.48 60.63 27.48C67.73 27.48 74.41 33.66 74.13 40.98C73.54 56.6 73.43 70.45 81.63 84.22C82.13 85.05 82.63 85.88 83.14 86.71C82.35 80.27 82.02 73.77 82.28 67.22C83.29 41.87 92.8 11.14 118.12 0.709998C124.86 -2.07 132.96 3.72 134.73 10.14C136.86 17.89 132.07 23.96 125.3 26.75C126.75 26.15 124.28 27.52 123.92 27.77C123.83 27.83 123.77 27.88 123.7 27.92C123.63 28 123.48 28.16 123.19 28.43C121.52 30 120.91 30.73 120 32.08C117.54 35.73 115.55 39.75 114.04 43.87C112.37 48.44 111.18 53.06 110.39 57.73C112.57 55.85 115.39 54.7 118.75 54.7C123.72 54.7 129.14 58.11 131.32 62.84C131.37 58.4 131.35 53.99 131.3 49.67C131.08 32.29 158.08 32.28 158.3 49.67C158.43 60.12 158.25 70.62 157.46 81.01C163.11 68.28 166.15 54.42 163.72 41.1C162.42 33.93 165.68 26.55 173.15 24.49C179.7 22.69 188.45 26.71 189.76 33.92C194.51 60.03 187.38 85.83 173.61 108.16C173.15 108.9 172.67 109.64 172.2 110.37C177.42 106.97 182.61 103.54 187.71 99.97C192.56 96.58 198.43 91.82 200.02 87.61C202.59 80.79 209.13 76.12 216.63 78.18C223.17 79.98 228.64 87.93 226.06 94.79C220.07 110.69 206.19 120.87 192.05 129.89C203.6 126.55 215.43 124.21 227.52 124.99C234.8 125.46 241.02 130.86 241.02 138.49C241.02 145.44 234.83 152.46 227.52 151.99C212.39 151.02 198.69 155.86 183.78 160.86C177.96 162.81 172.07 164.71 166.12 166.29C168.73 167.55 171.37 168.76 173.99 169.98C187.1 176.06 200.59 181.05 215.18 179.63C222.45 178.92 228.68 186.34 228.68 193.13C228.68 201.02 222.47 205.92 215.18 206.63C195.88 208.52 177.53 201.25 160.37 193.29C152.54 189.66 144.45 186.12 137.36 181.14C133.46 178.41 129.94 175.44 126.69 172.2C104.42 172.34 82.04 172.81 59.79 171.59C39.82 170.49 20 166.51 4.84 152.59C-0.529999 147.66 -0.160004 138.5 4.84 133.5L4.78999 133.49Z" fill="url(#paint0_radial_131_22)"/>
<path d="M109.56 144.77C111.72 145.99 113.69 147.51 115.52 149.17C129.68 145.46 143.75 139.54 157.81 147.74C165.77 152.38 171.09 161.31 168.65 170.64C166.18 180.1 157.91 185.67 148.6 186.94C136.93 188.53 123.34 188.67 112.3 183.63C110.58 183.81 108.81 183.74 107.05 183.39C99.24 181.81 91.53 179.82 83.96 177.3C74.09 174.01 61.95 170.11 61.95 157.47C61.95 134.09 95.64 136.89 109.56 144.77Z" fill="#128950"/>
<defs>
<radialGradient id="paint0_radial_131_22" cx="0" cy="0" r="1" gradientUnits="userSpaceOnUse" gradientTransform="translate(120.99 83.5) rotate(90.0023) scale(123.433 143.195)">
<stop stop-color="#FFEFA5"/>
<stop offset="1" stop-color="#FCCC21"/>
</radialGradient>
</defs>
</svg>
