<svg width="268" height="683" viewBox="0 0 268 683" fill="none" xmlns="http://www.w3.org/2000/svg">
<g clip-path="url(#clip0_147_287)">
<path d="M151.59 187.9C136.21 211.06 129.1 238.09 127.41 265.03C125.5 295.52 129.67 325.64 135.18 355.52C141.38 389.15 148.58 422.57 151.73 456.68C154.82 490.18 154.57 523.94 151.97 557.47C148.99 595.96 143.03 634.21 135.42 672.04C133.88 679.72 124.75 684.14 117.58 682.17C109.58 679.97 105.9 672.04 107.45 664.33C120.66 598.63 128.54 531.46 123.37 464.42C118.35 399.31 95.37 335.87 98.14 270.06C99.57 236.13 107.56 201.85 126.54 173.27C130.87 166.75 139.34 163.95 146.38 168.07C152.85 171.86 155.93 181.36 151.58 187.91L151.59 187.9Z" fill="#21BF68"/>
<path d="M31.79 133.49C37.14 128.14 45.5 128.54 50.88 133.49C60.97 142.76 76.62 144.26 91.39 144.79C94.76 144.91 98.13 145 101.5 145.08C90.86 139.07 81.37 130.81 73.11 121.42C65.28 112.53 57.91 103.02 51.1 93.3301C44 83.2201 38.86 71.8801 38.7 59.3401C38.47 41.9601 65.47 41.9501 65.7 59.3401C65.8 66.6301 70.02 73.5201 74.9 80.3901C76.57 82.7401 78.29 85.0601 80.04 87.3701C74.06 72.6501 73.52 57.0601 74.13 40.9801C74.41 33.6901 80.14 27.4801 87.63 27.4801C94.73 27.4801 101.41 33.6601 101.13 40.9801C100.54 56.6001 100.43 70.4501 108.63 84.2201C109.13 85.0501 109.63 85.8801 110.14 86.7101C109.35 80.2701 109.02 73.7701 109.28 67.2201C110.29 41.8701 119.8 11.1401 145.12 0.710105C151.86 -2.0699 159.96 3.72011 161.73 10.1401C163.86 17.8901 159.07 23.9601 152.3 26.7501C153.75 26.1501 151.28 27.5201 150.92 27.7701C150.83 27.8301 150.77 27.8801 150.7 27.9201C150.63 28.0001 150.48 28.1601 150.19 28.4301C148.52 30.0001 147.91 30.7301 147 32.0801C144.54 35.7301 142.55 39.7501 141.04 43.8701C139.37 48.4401 138.18 53.0601 137.39 57.7301C139.57 55.8501 142.39 54.7001 145.75 54.7001C150.72 54.7001 156.14 58.1101 158.32 62.8401C158.37 58.4001 158.35 53.9901 158.3 49.6701C158.08 32.2901 185.08 32.2801 185.3 49.6701C185.43 60.1201 185.25 70.6201 184.46 81.0101C190.11 68.2801 193.15 54.4201 190.72 41.1001C189.42 33.9301 192.68 26.5501 200.15 24.4901C206.7 22.6901 215.45 26.7101 216.76 33.9201C221.51 60.0301 214.38 85.8301 200.61 108.16C200.15 108.9 199.67 109.64 199.2 110.37C204.42 106.97 209.61 103.54 214.71 99.9701C219.56 96.5801 225.43 91.8201 227.02 87.6101C229.59 80.7901 236.13 76.1201 243.63 78.1801C250.17 79.9801 255.64 87.9301 253.06 94.7901C247.07 110.69 233.19 120.87 219.05 129.89C230.6 126.55 242.43 124.21 254.52 124.99C261.8 125.46 268.02 130.86 268.02 138.49C268.02 145.44 261.83 152.46 254.52 151.99C239.39 151.02 225.69 155.86 210.78 160.86C204.96 162.81 199.07 164.71 193.12 166.29C195.73 167.55 198.37 168.76 200.99 169.98C214.1 176.06 227.59 181.05 242.18 179.63C249.45 178.92 255.68 186.34 255.68 193.13C255.68 201.02 249.47 205.92 242.18 206.63C222.88 208.52 204.53 201.25 187.37 193.29C179.54 189.66 171.45 186.12 164.36 181.14C160.46 178.41 156.94 175.44 153.69 172.2C131.42 172.34 109.04 172.81 86.79 171.59C66.82 170.49 47 166.51 31.84 152.59C26.47 147.66 26.84 138.5 31.84 133.5L31.79 133.49Z" fill="url(#paint0_radial_147_287)"/>
<path d="M136.56 144.77C138.72 145.99 140.69 147.51 142.52 149.17C156.68 145.46 170.75 139.54 184.81 147.74C192.77 152.38 198.09 161.31 195.65 170.64C193.18 180.1 184.91 185.67 175.6 186.94C163.93 188.53 150.34 188.67 139.3 183.63C137.58 183.81 135.81 183.74 134.05 183.39C126.24 181.81 118.53 179.82 110.96 177.3C101.09 174.01 88.95 170.11 88.95 157.47C88.95 134.09 122.64 136.89 136.56 144.77Z" fill="#128950"/>
<path d="M147.14 277.56C148.06 276.6 148.99 275.65 149.92 274.7C154.85 267.76 160.91 261.86 167.94 256.83C176.86 250.45 186.92 264.3 179.45 271.75C179.41 271.79 179.38 271.82 179.34 271.86C195.56 270.29 211.84 271.83 224.75 282.43C227.96 285.06 228.21 290.57 226.24 293.94C224.03 297.72 219.66 299.17 215.51 298.31C213.06 297.8 210.59 297.35 208.11 296.97C212.77 300.78 216.5 305.52 218.23 311.69C220.56 320.03 211.46 326.09 204.27 322.42C196.35 318.38 188.31 314.55 180.14 311.03C176.23 309.34 172.28 307.74 168.3 306.2C167.64 305.94 166.9 305.61 166.12 305.27C166.82 306.91 167.81 308.44 169.06 309.78C177.38 318.73 163.97 332.2 155.63 323.22C147.55 314.52 144.55 303.32 146.9 291.73C145.47 290.07 144.62 287.95 144.62 285.68C144.08 283.02 144.7 280.11 147.13 277.58L147.14 277.56Z" fill="#21BF68"/>
</g>
<defs>
<radialGradient id="paint0_radial_147_287" cx="0" cy="0" r="1" gradientUnits="userSpaceOnUse" gradientTransform="translate(147.99 83.5001) rotate(90.0023) scale(123.433 143.195)">
<stop stop-color="#FFEFA5"/>
<stop offset="1" stop-color="#FCCC21"/>
</radialGradient>
<clipPath id="clip0_147_287">
<rect width="267.99" height="682.63" fill="white" transform="matrix(-1 0 0 1 267.99 0)"/>
</clipPath>
</defs>
</svg>
