<svg width="418" height="2052" viewBox="0 0 418 2052" fill="none" xmlns="http://www.w3.org/2000/svg">
<g clip-path="url(#clip0_149_322)">
<path d="M186.439 242C181.939 258.333 153.639 308.1 164.439 376.5C177.939 462 303.939 564 303.939 737.5C303.939 911 134.439 1045.5 134.439 1215C134.439 1384.5 303.939 1503 303.939 1650.5C303.939 1798 134.439 1923.5 134.439 2124C134.439 2324.5 303.939 2479 303.939 2582C303.939 2664.4 295.272 2707.33 290.939 2718.5" stroke="#008A46" stroke-width="40"/>
<path d="M130.2 414.42C135.03 408.26 137.32 399.78 134.07 392.78C135.21 385.29 131.56 378.48 125.01 373.46C116.19 366.7 104.19 365.79 93.47 366.13C82.37 366.48 71.27 367.09 60.19 367.81C50.29 368.46 40.71 376.09 41.19 386.81C41.63 396.55 49.57 406.5 60.19 405.81C62 405.69 63.81 405.6 65.63 405.49C47.42 418.82 31.4 434.88 20.57 454.98C15.86 463.73 18.1 476.07 27.39 480.98C29.71 482.21 32.26 482.95 34.85 483.23C34.76 483.66 34.66 484.09 34.58 484.52C31.93 497.99 32.39 511.63 31.19 525.23C30.31 535.16 40.56 544.66 50.19 544.23C61.23 543.74 68.25 535.86 69.19 525.23C69.7 519.42 69.85 513.59 70.09 507.76C70.2 505.17 70.32 502.59 70.52 500.01C70.52 500.1 70.78 497.62 70.85 496.7C70.97 496 71.17 494.82 71.21 494.62C71.7 492.14 72.31 489.69 73.04 487.27C73.37 486.2 73.71 485.13 74.08 484.07C74.06 484.11 74.69 482.48 75.01 481.6C75.27 481.01 75.62 480.21 75.7 480.06C76.3 478.79 76.93 477.53 77.59 476.29C78.04 475.45 78.5 474.63 78.97 473.8C80.07 481.79 82.45 489.6 86.46 497.03C91.18 505.79 104.04 509.28 112.46 503.85C121.35 498.12 124.33 487.22 119.28 477.85C118.75 476.87 117.7 474.16 118.09 475.4C117.67 474.13 117.26 472.86 116.93 471.55C116.83 471.16 116.35 468.32 116.27 468.3C116.18 467.19 116.11 466.08 116.08 464.97C116 462.03 116.18 459.12 116.44 456.19C116.59 455.29 116.75 454.39 116.94 453.5C117.3 451.67 117.72 449.86 118.17 448.06C119.92 441.12 122.26 434.35 124.61 427.6C125.18 425.97 125.74 424.33 126.34 422.71C126.36 422.65 126.4 422.55 126.44 422.45C127 421.42 127.44 420.33 127.78 419.19C128.14 418.45 128.51 417.71 128.91 416.98C129.29 416.29 132.54 411.43 130.2 414.41V414.42ZM116.44 456.01C116.44 455.92 116.45 455.83 116.46 455.74C116.59 454.53 116.58 454.63 116.44 456.01Z" fill="#008A46"/>
<path d="M303.14 308.26C299.71 297.65 290.3 293.21 279.77 294.99C283.26 294.4 277.5 295.17 277.25 295.18C275.35 295.28 273.43 295.29 271.53 295.27C270.48 295.26 269.42 295.23 268.37 295.19C271.55 288.18 269.95 278.57 264.47 273.53C256.27 266 245.83 266.78 237.6 273.53C227.49 281.82 217.67 290.45 208.15 299.4C202.93 304.31 201.41 312.53 203.71 319.3C199.37 327.76 202.5 339.69 211.09 344.23C215.38 346.5 220.08 347.12 224.45 346.27C224.85 346.4 225.24 346.53 225.65 346.63C227.62 347.1 229.52 347.72 231.45 348.31C231.48 348.32 231.5 348.33 231.53 348.34C232.29 348.71 233.05 349.08 233.8 349.49C235.18 350.25 236.5 351.1 237.8 351.97C236.45 351.13 240.21 354.03 240.82 354.62C247.98 361.52 260.66 362.28 267.69 354.62C273.03 348.8 274.67 340.21 271.52 333.22C277.67 333.2 283.69 332.68 289.86 331.64C299.69 329.98 306.07 317.35 303.13 308.27L303.14 308.26Z" fill="#008A46"/>
<path d="M391.8 514.88C382.08 497.87 360.41 491.06 343.33 484C342.02 483.46 340.7 482.93 339.39 482.41C341.26 473.37 336.42 460.98 326.05 459.39C305.48 456.23 285.64 459.01 267.25 469.09C258.52 473.87 254.98 486.63 260.43 495.09C263.32 499.58 267.57 502.57 272.27 503.78C272.44 503.93 272.61 504.08 272.79 504.23C276.99 507.61 280.89 511.31 284.45 515.36C285.34 516.37 286.15 517.44 287.05 518.44C287.14 518.54 287.21 518.62 287.27 518.68C287.35 518.8 287.44 518.92 287.54 519.06C289.13 521.25 290.69 523.46 292.17 525.72C298.15 534.84 303.21 544.51 308.23 554.18C312.82 563.02 325.9 566.37 334.23 561C343.23 555.2 345.96 544.45 341.05 535C338.59 530.27 336.09 525.51 333.47 520.8C334.09 521.06 334.62 521.28 334.65 521.29C338.61 523.03 342.54 524.83 346.47 526.64C349.8 528.18 353.18 529.68 356.32 531.59C357.8 532.49 359.54 534.79 357.36 532.14C357.73 532.46 358.08 532.8 358.43 533.14C358.55 533.36 358.73 533.65 358.99 534.06C363.92 542.69 376.42 546.4 384.99 540.88C393.71 535.26 397.08 524.12 391.81 514.88H391.8Z" fill="#008A46"/>
<path d="M283.953 168.91C280.088 154.899 264.065 144.884 249.79 149.507C249.719 149.531 249.648 149.554 249.577 149.578C244.697 139.705 237.831 130.778 229.37 125.173C227.598 114.721 220.791 104.8 209.742 102.849C199.828 101.099 191.142 101.844 182.398 107.059C175.426 111.221 170.947 117.795 166.149 124.097C166.079 124.192 165.996 124.298 165.925 124.393C160.501 122.111 154.262 121.508 147.821 122.938C117.44 129.678 96.4532 169.324 112.583 197.465C123.656 216.762 147.632 227.818 170.179 229.378C174.989 237.407 183.473 242.87 193.695 242.905C203.526 242.94 213.358 242.976 223.19 243C229.642 243.011 236.401 242.787 242.593 240.836C248.183 239.074 253.607 236.153 258.676 233.245C269.146 227.226 278.505 219.174 283.279 207.859C288.667 195.1 287.58 182.059 283.964 168.922L283.953 168.91Z" fill="url(#paint0_radial_149_322)"/>
<path d="M278 190.44C263.43 178.46 240.37 184.84 225.61 192.81C215.09 198.49 206.03 206.06 197.6 214.5C191.41 205.74 182.82 198.88 172.78 194.6C156.82 187.78 134.6 180.43 119.15 191.52C108.79 198.96 105.51 213.29 109.22 225.58C112.18 235.4 119.69 243.13 127.61 248.68C143.08 259.52 161.73 266.73 180.36 262.83C181.2 262.65 207.66 259.33 225.75 255.03C243.23 250.87 252.31 243.3 259.9 241.32C268.19 239.16 276.18 235.18 281.55 227.91C289.85 216.68 289.19 199.64 278.01 190.44H278Z" fill="#045631"/>
</g>
<defs>
<radialGradient id="paint0_radial_149_322" cx="0" cy="0" r="1" gradientUnits="userSpaceOnUse" gradientTransform="translate(197 192) rotate(-84.0119) scale(71.8923 91.7944)">
<stop stop-color="#FEDF3C"/>
<stop offset="1" stop-color="#F1B009"/>
</radialGradient>
<clipPath id="clip0_149_322">
<rect width="418" height="2052" fill="white"/>
</clipPath>
</defs>
</svg>
