<svg width="415" height="2052" viewBox="0 0 415 2052" fill="none" xmlns="http://www.w3.org/2000/svg">
<g clip-path="url(#clip0_121_10)">
<path d="M207.439 242C202.939 258.333 174.639 308.1 185.439 376.5C198.939 462 354.939 564 354.939 737.5C354.939 911 185.439 1045.5 185.439 1215C185.439 1384.5 354.939 1503 354.939 1650.5C354.939 1798 185.439 1923.5 185.439 2124C185.439 2324.5 354.939 2479 354.939 2582C354.939 2664.4 346.272 2707.33 341.939 2718.5" stroke="#008A46" stroke-width="40"/>
<path d="M364.77 121.73C360.61 117.57 353.78 114.43 347.8 114.7C341.59 114.98 335.16 117.02 330.83 121.73C326.88 126.03 325.19 130.51 324.23 135.92C324.41 135.49 324.61 134.98 324.87 134.34C324.97 134.67 324.64 135.32 324.22 135.99C324.18 136.24 324.13 136.49 324.09 136.75C324.13 136.48 324.16 136.25 324.18 136.06C324.29 135.04 324.2 135.11 323.89 136.28C323.84 136.44 323.8 136.56 323.77 136.68C323.37 137.26 322.99 137.77 322.84 138C322.79 138.08 322.76 138.13 322.71 138.2C322.85 138.08 322.98 138.01 323.08 138.04C323.04 138.03 322.67 138.45 322.18 139.02C321.57 139.94 321.47 139.99 321.62 139.69C320.74 140.74 319.77 141.93 319.67 142.04C315.59 146.62 311.29 151 306.88 155.25C302.02 159.93 297 164.45 291.8 168.76C290.87 169.53 289.92 170.29 288.97 171.05C288.84 171.14 288.7 171.24 288.54 171.35C286.69 172.65 284.84 173.94 282.95 175.17C288.91 168.94 294.76 162.59 300.1 155.82C309.01 144.51 316.22 133.16 321.16 119.55C326.08 106.01 326.53 91.87 324.07 77.81C321.9 65.41 306.07 57.32 294.55 61.05C281.66 65.22 275.88 76.5 277.6 89.23C277.6 89.22 277.6 89.2 277.62 89.18C277.62 89.19 277.62 89.21 277.6 89.23C277.66 89.68 277.71 90.12 277.78 90.57C278.39 94.04 277.38 90.38 277.55 89.36C277.37 90.06 277.76 91.93 277.76 92.53C277.77 93.64 277.75 94.76 277.69 95.88C277.69 95.92 277.68 96.04 277.67 96.2C277.6 96.4 277.38 98.14 277.26 98.65C277.01 99.75 276.74 100.85 276.43 101.94C275.89 103.86 275.21 105.71 274.55 107.58C273.9 108.77 273.36 110.04 272.71 111.24C272.62 111.41 272.51 111.58 272.42 111.76C273 107.78 273.4 103.8 273.59 99.81C274.4 82.74 269.32 66.19 260.71 51.58C251.97 36.76 241.75 20.72 224.69 15.11C212.76 11.19 197.95 19.66 195.17 31.87C192.43 43.91 198.01 55.05 208.7 60.1C208.73 60.13 208.76 60.15 208.8 60.18C230.07 68.86 236.67 151.72 201.11 157.58C199.44 155.36 197.81 153.11 196.32 150.76C196.04 150.31 195.09 149.05 194.34 147.86C194 146.93 193.69 145.99 193.43 145.04C193.29 144.36 193.19 143.89 193.12 143.6C193.06 141.96 193.02 140.33 193.06 138.69C193.15 135.3 193.51 131.94 193.86 128.57C193.93 128.12 194 127.67 194.08 127.23C194.41 125.32 194.78 123.42 195.21 121.53C195.94 118.31 199.26 108.46 199.93 107.18C200.69 105.74 201.49 104.32 202.36 102.94C203.14 101.7 207.69 95.96 203.42 101.18C207.57 96.11 210.45 91 210.45 84.21C210.45 78.32 207.84 71.29 203.42 67.24C194.62 59.17 177.97 56.87 169.48 67.24C167.51 69.65 165.7 72.11 164.02 74.6C164.02 74.55 164.03 74.5 164.04 74.44C164.04 74.44 164.04 74.43 164.04 74.42C166.42 59.59 169.21 44.88 172.25 30.17C174.78 17.91 168.69 3.65003 155.49 0.650028C143.49 -2.07997 128.68 4.26003 125.97 17.41C123.46 29.56 120.97 41.72 118.96 53.97C114.42 48.87 107.87 45.54 101.07 45.84C87.6801 46.44 77.5501 56.38 77.0701 69.84C76.1301 96.34 84.6901 121.5 95.9001 145.13C96.6701 146.75 97.4601 148.36 98.2501 149.96C96.7701 148.46 95.3201 146.94 93.8801 145.4C90.9301 142.24 88.0601 139.01 85.2801 135.69C84.1601 134.36 83.0601 133.02 81.9701 131.67C81.5201 131.12 81.0801 130.56 80.6401 130C80.5501 129.89 80.4801 129.79 80.3801 129.66C78.0301 126.43 75.6001 123.24 73.4301 119.88C73.0201 119.24 71.9401 117.87 71.1401 116.57C71.1401 116.51 71.1401 116.44 71.1301 116.38C71.5101 117.22 71.5001 117 71.0801 115.69C69.9801 103.56 60.1701 92.18 47.1601 92.76C34.6701 93.32 22.5101 103.33 23.1601 116.76C23.8101 130.26 29.5701 141.15 37.3801 151.79C44.4001 161.36 51.8301 170.67 59.9301 179.35C65.9801 185.83 72.3901 191.97 79.1201 197.74C71.9501 195.78 64.9501 193.36 58.0201 190.65C57.9001 190.59 57.7701 190.54 57.6301 190.47C56.5301 189.96 55.4201 189.47 54.3201 188.97C52.1101 187.96 49.9101 186.94 47.7001 185.96C41.3201 183.14 34.8901 180.37 28.2101 178.32C16.2001 174.65 1.51005 182.69 -1.30995 195.08C-4.26995 208.06 2.60005 220.67 15.4501 224.6C18.1101 225.42 20.6901 226.41 23.3101 227.33C23.3401 227.33 23.3501 227.35 23.3801 227.35C23.4101 227.36 23.4401 227.38 23.4701 227.39C24.5801 227.89 25.6801 228.38 26.7901 228.89C32.9701 231.7 39.1601 234.47 45.4601 237.01C55.0601 240.89 64.9801 243.96 75.1001 246.14C96.1501 250.66 117.29 251.74 138.44 248.69C148.59 251.96 160.21 253.82 172.57 253.82C192.7 253.82 210.88 248.88 223.89 240.94C252.93 237.1 282.76 232.61 307.77 216.27C320.92 207.68 333.03 197.04 344.14 185.96C349.78 180.33 355.1 174.5 359.98 168.19C366.95 159.17 370.33 150.03 371.81 138.72C372.55 133.09 368.59 125.56 364.78 121.75L364.77 121.73ZM209.75 61.31C209.48 60.96 209.25 60.65 209.03 60.37C209.51 60.78 209.88 61.17 209.75 61.31ZM70.2001 114.11C70.5701 115.03 70.8601 115.72 71.0601 116.17C71.0801 116.27 71.1001 116.38 71.1201 116.48C70.5501 115.55 70.1301 114.66 70.2001 114.11ZM193.41 145.59C193.7 146.31 194 147.04 194.29 147.76C193.72 146.83 193.28 145.97 193.41 145.59Z" fill="url(#paint0_radial_121_10)"/>
<path d="M161.2 414.42C166.03 408.26 168.32 399.78 165.07 392.78C166.21 385.29 162.56 378.48 156.01 373.46C147.19 366.7 135.19 365.79 124.47 366.13C113.37 366.48 102.27 367.09 91.19 367.81C81.29 368.46 71.71 376.09 72.19 386.81C72.63 396.55 80.57 406.5 91.19 405.81C93 405.69 94.81 405.6 96.63 405.49C78.42 418.82 62.4 434.88 51.57 454.98C46.86 463.73 49.1 476.07 58.39 480.98C60.71 482.21 63.26 482.95 65.85 483.23C65.76 483.66 65.66 484.09 65.58 484.52C62.93 497.99 63.39 511.63 62.19 525.23C61.31 535.16 71.56 544.66 81.19 544.23C92.23 543.74 99.25 535.86 100.19 525.23C100.7 519.42 100.85 513.59 101.09 507.76C101.2 505.17 101.32 502.59 101.52 500.01C101.52 500.1 101.78 497.62 101.85 496.7C101.97 496 102.17 494.82 102.21 494.62C102.7 492.14 103.31 489.69 104.04 487.27C104.37 486.2 104.71 485.13 105.08 484.07C105.06 484.11 105.69 482.48 106.01 481.6C106.27 481.01 106.62 480.21 106.7 480.06C107.3 478.79 107.93 477.53 108.59 476.29C109.04 475.45 109.5 474.63 109.97 473.8C111.07 481.79 113.45 489.6 117.46 497.03C122.18 505.79 135.04 509.28 143.46 503.85C152.35 498.12 155.33 487.22 150.28 477.85C149.75 476.87 148.7 474.16 149.09 475.4C148.67 474.13 148.26 472.86 147.93 471.55C147.83 471.16 147.35 468.32 147.27 468.3C147.18 467.19 147.11 466.08 147.08 464.97C147 462.03 147.18 459.12 147.44 456.19C147.59 455.29 147.75 454.39 147.94 453.5C148.3 451.67 148.72 449.86 149.17 448.06C150.92 441.12 153.26 434.35 155.61 427.6C156.18 425.97 156.74 424.33 157.34 422.71C157.36 422.65 157.4 422.55 157.44 422.45C158 421.42 158.44 420.33 158.78 419.19C159.14 418.45 159.51 417.71 159.91 416.98C160.29 416.29 163.54 411.43 161.2 414.41V414.42ZM147.44 456.01C147.44 455.92 147.45 455.83 147.46 455.74C147.59 454.53 147.58 454.63 147.44 456.01Z" fill="#008A46"/>
<path d="M324.14 308.26C320.71 297.65 311.3 293.21 300.77 294.99C304.26 294.4 298.5 295.17 298.25 295.18C296.35 295.28 294.43 295.29 292.53 295.27C291.48 295.26 290.42 295.23 289.37 295.19C292.55 288.18 290.95 278.57 285.47 273.53C277.27 266 266.83 266.78 258.6 273.53C248.49 281.82 238.67 290.45 229.15 299.4C223.93 304.31 222.41 312.53 224.71 319.3C220.37 327.76 223.5 339.69 232.09 344.23C236.38 346.5 241.08 347.12 245.45 346.27C245.85 346.4 246.24 346.53 246.65 346.63C248.62 347.1 250.52 347.72 252.45 348.31C252.48 348.32 252.5 348.33 252.53 348.34C253.29 348.71 254.05 349.08 254.8 349.49C256.18 350.25 257.5 351.1 258.8 351.97C257.45 351.13 261.21 354.03 261.82 354.62C268.98 361.52 281.66 362.28 288.69 354.62C294.03 348.8 295.67 340.21 292.52 333.22C298.67 333.2 304.69 332.68 310.86 331.64C320.69 329.98 327.07 317.35 324.13 308.27L324.14 308.26Z" fill="#008A46"/>
<path d="M412.8 514.88C403.08 497.87 381.41 491.06 364.33 484C363.02 483.46 361.7 482.93 360.39 482.41C362.26 473.37 357.42 460.98 347.05 459.39C326.48 456.23 306.64 459.01 288.25 469.09C279.52 473.87 275.98 486.63 281.43 495.09C284.32 499.58 288.57 502.57 293.27 503.78C293.44 503.93 293.61 504.08 293.79 504.23C297.99 507.61 301.89 511.31 305.45 515.36C306.34 516.37 307.15 517.44 308.05 518.44C308.14 518.54 308.21 518.62 308.27 518.68C308.35 518.8 308.44 518.92 308.54 519.06C310.13 521.25 311.69 523.46 313.17 525.72C319.15 534.84 324.21 544.51 329.23 554.18C333.82 563.02 346.9 566.37 355.23 561C364.23 555.2 366.96 544.45 362.05 535C359.59 530.27 357.09 525.51 354.47 520.8C355.09 521.06 355.62 521.28 355.65 521.29C359.61 523.03 363.54 524.83 367.47 526.64C370.8 528.18 374.18 529.68 377.32 531.59C378.8 532.49 380.54 534.79 378.36 532.14C378.73 532.46 379.08 532.8 379.43 533.14C379.55 533.36 379.73 533.65 379.99 534.06C384.92 542.69 397.42 546.4 405.99 540.88C414.71 535.26 418.08 524.12 412.81 514.88H412.8Z" fill="#008A46"/>
<path d="M269 188.44C254.43 176.46 231.37 182.84 216.61 190.81C206.09 196.49 197.03 204.06 188.6 212.5C182.41 203.74 173.82 196.88 163.78 192.6C147.82 185.78 125.6 178.43 110.15 189.52C99.79 196.96 96.51 211.29 100.22 223.58C103.18 233.4 110.69 241.13 118.61 246.68C134.08 257.52 152.73 264.73 171.36 260.83C172.2 260.65 198.66 257.33 216.75 253.03C234.23 248.87 243.31 241.3 250.9 239.32C259.19 237.16 267.18 233.18 272.55 225.91C280.85 214.68 280.19 197.64 269.01 188.44H269ZM235.45 205.13C235.81 205 236.19 204.88 236.59 204.79C236.21 204.91 235.83 205.02 235.45 205.13Z" fill="#045631"/>
</g>
<defs>
<radialGradient id="paint0_radial_121_10" cx="0" cy="0" r="1" gradientUnits="userSpaceOnUse" gradientTransform="translate(184.954 126.923) rotate(88.4384) scale(130.125 191.702)">
<stop stop-color="#FEDF3C"/>
<stop offset="1" stop-color="#F1B009"/>
</radialGradient>
<clipPath id="clip0_121_10">
<rect width="415" height="2052" fill="white"/>
</clipPath>
</defs>
</svg>
