<svg width="45" height="52" viewBox="0 0 45 52" fill="none" xmlns="http://www.w3.org/2000/svg">
<path d="M22.8094 0C27.1949 0 30.9548 3.64317 32.5419 8.82556C36.8114 7.92021 40.8641 8.92416 43.1202 11.8686C46.036 15.6743 45.041 21.5344 41.0879 26.1729C45.2037 30.8457 46.28 36.8358 43.3164 40.7036C41.0225 43.6976 36.871 44.6852 32.5228 43.6994C30.8284 48.5307 27.2037 51.869 23.0056 51.869C18.8075 51.869 15.1828 48.5307 13.4884 43.6995C9.14024 44.6852 4.98874 43.6975 2.6948 40.7036C-0.221058 36.898 0.773939 31.0379 4.72711 26.3994C0.611256 21.7266 -0.464994 15.7365 2.49854 11.8686C4.75459 8.92415 8.80734 7.9202 13.0768 8.82556C14.664 3.64317 18.4238 0 22.8094 0Z" fill="white"/>
</svg>
