<svg width="44" height="45" viewBox="0 0 44 45" fill="none" xmlns="http://www.w3.org/2000/svg">
<path d="M25.485 35.9811C25.7969 33.0408 28.9233 28.4057 31.7235 24.2197C34.5237 28.4057 37.65 33.0408 37.962 35.9811C38.1699 37.9413 37.7124 41.8618 31.7235 41.8618C25.7346 41.8618 25.2771 37.9413 25.485 35.9811Z" fill="black" stroke="black" stroke-width="3"/>
<path d="M5.14884 35.9811C5.46076 33.0408 8.58712 28.4057 11.3873 24.2197C14.1875 28.4057 17.3139 33.0408 17.6258 35.9811C17.8337 37.9413 17.3762 41.8618 11.3873 41.8618C5.39837 41.8618 4.94089 37.9413 5.14884 35.9811Z" fill="black" stroke="black" stroke-width="3"/>
<path d="M15.0393 14.3333C15.3624 11.5 18.6001 7.03361 21.5 3C24.3999 7.03361 27.6376 11.5 27.9607 14.3333C28.176 16.2222 27.7022 20 21.5 20C15.2978 20 14.824 16.2222 15.0393 14.3333Z" fill="black" stroke="black" stroke-width="3"/>
</svg>
