<svg width="44" height="44" viewBox="0 0 44 44" fill="none" xmlns="http://www.w3.org/2000/svg">
<path d="M22.5001 24.8719V11.1263M22.5001 2.87891V11.1263M22.5001 11.1263L27.8609 6.31531M22.5001 11.1263L17.1393 6.31531" stroke="black" stroke-width="3" stroke-linecap="square"/>
<path d="M20.0463 23.301L32.3155 16.4936M39.677 12.4092L32.3155 16.4936M32.3155 16.4936L39.089 18.2378M32.3155 16.4936L34.1304 9.98431" stroke="black" stroke-width="3" stroke-linecap="square"/>
<path d="M20.0462 20.578L32.3154 27.3853M39.677 31.4698L32.3154 27.3853M32.3154 27.3853L34.1304 33.8947M32.3154 27.3853L39.0889 25.6412" stroke="black" stroke-width="3" stroke-linecap="square"/>
<path d="M22.4999 19.0072L22.4999 32.7529M22.4999 41.0002V32.7529M22.4999 32.7529L17.1391 37.5638M22.4999 32.7529L27.8607 37.5638" stroke="black" stroke-width="3" stroke-linecap="square"/>
<path d="M24.9537 20.5782L12.6845 27.3855M5.32297 31.4699L12.6845 27.3855M12.6845 27.3855L5.911 25.6414M12.6845 27.3855L10.8696 33.8948" stroke="black" stroke-width="3" stroke-linecap="square"/>
<path d="M24.9538 23.3012L12.6846 16.4938M5.32303 12.4094L12.6846 16.4938M12.6846 16.4938L10.8696 9.98449M12.6846 16.4938L5.91106 18.238" stroke="black" stroke-width="3" stroke-linecap="square"/>
</svg>
