<svg width="44" height="44" viewBox="0 0 44 44" fill="none" xmlns="http://www.w3.org/2000/svg">
<path d="M3 13.9291H29.7698C33.24 13.9291 35.223 11.8688 35.223 8.5922C35.223 6.26075 33.3639 4.00001 29.7698 4C28.2826 4 27.6867 4 25.1843 4M3 21.5C12.0885 21.5 33.6118 21.5 36.0905 21.5C38.5692 21.5 40.8 23.8582 40.8 26.5887C40.8 29.3191 39.9325 31.6773 36.0905 31.6773C34.8511 31.6773 31.7087 31.6773 30.1416 31.6773M3 28.9468C6.34623 28.9468 11.8241 28.9468 14.8977 28.9468C18.7397 28.9468 20.2269 31.305 20.2269 34.0355C20.2269 36.0807 18.9875 39 14.8977 39C13.4105 39 12.6134 39 10.4361 39" stroke="black" stroke-width="4"/>
</svg>
