<svg width="254" height="483" viewBox="0 0 254 483" fill="none" xmlns="http://www.w3.org/2000/svg">
<g clip-path="url(#clip0_15_89)">
<path d="M17.79 133.49C23.14 128.14 31.5 128.54 36.88 133.49C46.97 142.76 62.62 144.26 77.39 144.79C80.76 144.91 84.13 145 87.5 145.08C76.86 139.07 67.37 130.81 59.11 121.42C51.28 112.53 43.91 103.02 37.1 93.33C30 83.22 24.86 71.88 24.7 59.34C24.47 41.96 51.47 41.95 51.7 59.34C51.8 66.63 56.02 73.52 60.9 80.39C62.57 82.74 64.29 85.06 66.04 87.37C60.06 72.65 59.52 57.06 60.13 40.98C60.41 33.69 66.14 27.48 73.63 27.48C80.73 27.48 87.41 33.66 87.13 40.98C86.54 56.6 86.43 70.45 94.63 84.22C95.13 85.05 95.63 85.88 96.14 86.71C95.35 80.27 95.02 73.77 95.28 67.22C96.29 41.87 105.8 11.14 131.12 0.709998C137.86 -2.07 145.96 3.72 147.73 10.14C149.86 17.89 145.07 23.96 138.3 26.75C139.75 26.15 137.28 27.52 136.92 27.77C136.83 27.83 136.77 27.88 136.7 27.92C136.63 28 136.48 28.16 136.19 28.43C134.52 30 133.91 30.73 133 32.08C130.54 35.73 128.55 39.75 127.04 43.87C125.37 48.44 124.18 53.06 123.39 57.73C125.57 55.85 128.39 54.7 131.75 54.7C136.72 54.7 142.14 58.11 144.32 62.84C144.37 58.4 144.35 53.99 144.3 49.67C144.08 32.29 171.08 32.28 171.3 49.67C171.43 60.12 171.25 70.62 170.46 81.01C176.11 68.28 179.15 54.42 176.72 41.1C175.42 33.93 178.68 26.55 186.15 24.49C192.7 22.69 201.45 26.71 202.76 33.92C207.51 60.03 200.38 85.83 186.61 108.16C186.15 108.9 185.67 109.64 185.2 110.37C190.42 106.97 195.61 103.54 200.71 99.97C205.56 96.58 211.43 91.82 213.02 87.61C215.59 80.79 222.13 76.12 229.63 78.18C236.17 79.98 241.64 87.93 239.06 94.79C233.07 110.69 219.19 120.87 205.05 129.89C216.6 126.55 228.43 124.21 240.52 124.99C247.8 125.46 254.02 130.86 254.02 138.49C254.02 145.44 247.83 152.46 240.52 151.99C225.39 151.02 211.69 155.86 196.78 160.86C190.96 162.81 185.07 164.71 179.12 166.29C181.73 167.55 184.37 168.76 186.99 169.98C200.1 176.06 213.59 181.05 228.18 179.63C235.45 178.92 241.68 186.34 241.68 193.13C241.68 201.02 235.47 205.92 228.18 206.63C208.88 208.52 190.53 201.25 173.37 193.29C165.54 189.66 157.45 186.12 150.36 181.14C146.46 178.41 142.94 175.44 139.69 172.2C117.42 172.34 95.04 172.81 72.79 171.59C52.82 170.49 33 166.51 17.84 152.59C12.47 147.66 12.84 138.5 17.84 133.5L17.79 133.49Z" fill="url(#paint0_radial_15_89)"/>
<path d="M137.59 187.9C122.21 211.06 115.1 238.09 113.41 265.03C111.5 295.52 115.67 325.64 121.18 355.52C127.38 389.15 134.58 422.57 137.73 456.68C140.82 490.18 140.57 523.94 137.97 557.47C134.99 595.96 129.03 634.21 121.42 672.04C119.88 679.72 110.75 684.14 103.58 682.17C95.58 679.97 91.9 672.04 93.45 664.33C106.66 598.63 114.54 531.46 109.37 464.42C104.35 399.31 81.37 335.87 84.14 270.06C85.57 236.13 93.56 201.85 112.54 173.27C116.87 166.75 125.34 163.95 132.38 168.07C138.85 171.86 141.93 181.36 137.58 187.91L137.59 187.9Z" fill="#21BF68"/>
<path d="M122.56 144.77C124.72 145.99 126.69 147.51 128.52 149.17C142.68 145.46 156.75 139.54 170.81 147.74C178.77 152.38 184.09 161.31 181.65 170.64C179.18 180.1 170.91 185.67 161.6 186.94C149.93 188.53 136.34 188.67 125.3 183.63C123.58 183.81 121.81 183.74 120.05 183.39C112.24 181.81 104.53 179.82 96.96 177.3C87.09 174.01 74.95 170.11 74.95 157.47C74.95 134.09 108.64 136.89 122.56 144.77Z" fill="#128950"/>
<path d="M133.14 277.56C134.06 276.6 134.99 275.65 135.92 274.7C140.85 267.76 146.91 261.86 153.94 256.83C162.86 250.45 172.92 264.3 165.45 271.75C165.41 271.79 165.38 271.82 165.34 271.86C181.56 270.29 197.84 271.83 210.75 282.43C213.96 285.06 214.21 290.57 212.24 293.94C210.03 297.72 205.66 299.17 201.51 298.31C199.06 297.8 196.59 297.35 194.11 296.97C198.77 300.78 202.5 305.52 204.23 311.69C206.56 320.03 197.46 326.09 190.27 322.42C182.35 318.38 174.31 314.55 166.14 311.03C162.23 309.34 158.28 307.74 154.3 306.2C153.64 305.94 152.9 305.61 152.12 305.27C152.82 306.91 153.81 308.44 155.06 309.78C163.38 318.73 149.97 332.2 141.63 323.22C133.55 314.52 130.55 303.32 132.9 291.73C131.47 290.07 130.62 287.95 130.62 285.68C130.08 283.02 130.7 280.11 133.13 277.58L133.14 277.56Z" fill="#21BF68"/>
</g>
<defs>
<radialGradient id="paint0_radial_15_89" cx="0" cy="0" r="1" gradientUnits="userSpaceOnUse" gradientTransform="translate(133.99 83.5) rotate(90.0023) scale(123.433 143.195)">
<stop stop-color="#FFEFA5"/>
<stop offset="1" stop-color="#FCCC21"/>
</radialGradient>
<clipPath id="clip0_15_89">
<rect width="267.99" height="682.63" fill="white" transform="matrix(-1 0 0 1 253.99 0)"/>
</clipPath>
</defs>
</svg>
