<svg width="1440" height="259" viewBox="0 0 1440 259" fill="none" xmlns="http://www.w3.org/2000/svg">
<path d="M205.551 173.694C201.691 167.704 195.111 164.294 188.411 164.644C188.021 162.954 187.391 161.284 186.501 159.664C185.261 157.414 184.211 155.074 183.021 152.804C182.931 152.634 182.871 152.534 182.831 152.454C182.761 152.264 182.681 152.034 182.571 151.714C182.181 150.644 181.771 149.584 181.401 148.504C179.621 143.334 178.651 138.084 177.411 132.774C177.381 132.664 177.371 132.594 177.351 132.514C177.221 131.124 177.061 129.754 176.961 128.364C176.781 125.804 176.701 123.244 176.731 120.674C176.751 118.114 176.871 115.544 177.101 112.994C177.161 112.354 177.221 111.714 177.291 111.064C177.331 111.084 177.851 108.024 177.901 107.764C179.701 98.2844 175.261 87.3444 164.981 85.0044C155.861 82.9244 144.161 87.7644 142.221 97.9244C141.701 100.674 141.291 103.434 140.951 106.184C139.801 105.604 138.541 105.134 137.161 104.824C132.341 103.724 126.481 104.634 121.891 107.334C122.071 101.714 122.511 96.1044 123.211 90.5144C124.411 80.8744 113.841 71.6044 104.711 72.0144C97.1913 72.3544 91.9313 76.0244 88.9413 81.5844C88.4413 60.5644 88.5813 39.5344 89.3413 18.5244C89.6513 8.83443 80.5413 -0.415571 70.8013 0.0144288C60.4813 0.474429 52.6713 8.14443 52.3013 18.5144C51.3413 45.2444 51.3713 72.0044 52.4513 98.7244C53.0813 114.314 52.8913 131.854 57.6613 147.254C57.6213 147.214 57.5913 147.164 57.5513 147.124C57.4313 146.984 57.3313 146.864 57.2413 146.754C57.2013 146.674 57.1413 146.584 57.0613 146.454C55.5213 143.974 53.7813 141.654 52.3213 139.124C50.8513 136.594 49.6713 133.944 48.3213 131.354C48.2713 131.264 48.2413 131.194 48.2013 131.134C48.1513 130.994 48.0913 130.834 48.0313 130.644C47.4813 129.144 46.9313 127.664 46.4313 126.154C45.6113 123.634 44.8913 121.084 44.2913 118.504C43.9313 116.954 43.6513 115.394 43.3313 113.834C43.2513 113.434 43.1813 113.144 43.1313 112.944C43.1213 112.794 43.1113 112.644 43.0913 112.454C42.5913 106.614 42.4713 100.854 42.9613 95.0044C43.7813 85.3344 33.8713 76.0844 24.4613 76.5044C13.7413 76.9844 6.84131 84.6444 5.96131 95.0044C4.71131 109.814 6.80131 124.584 11.6513 138.414C11.4513 138.594 11.2613 138.784 11.0713 138.974C9.37131 134.544 7.83131 130.064 6.4313 125.534C3.58131 116.304 -6.60869 109.474 -16.3287 112.614C-25.6287 115.624 -32.3087 125.464 -29.2487 135.374C-23.9287 152.574 -16.6387 169.174 -7.36869 184.594C-8.6587 187.084 -9.35869 189.864 -9.22869 192.764C-8.77869 202.824 -1.09869 211.224 9.27131 211.264C41.9113 211.404 74.5513 211.544 107.181 211.684C137.801 211.814 171.311 214.914 198.911 199.004C207.301 194.164 210.941 182.054 205.551 173.694Z" fill="#00A855"/>
<path d="M1012.55 173.694C1008.69 167.704 1002.11 164.294 995.411 164.644C995.021 162.954 994.391 161.284 993.501 159.664C992.261 157.414 991.211 155.074 990.021 152.804C989.931 152.634 989.871 152.534 989.831 152.454C989.761 152.264 989.681 152.034 989.571 151.714C989.181 150.644 988.771 149.584 988.401 148.504C986.621 143.334 985.651 138.084 984.411 132.774C984.381 132.664 984.371 132.594 984.351 132.514C984.221 131.124 984.061 129.754 983.961 128.364C983.781 125.804 983.701 123.244 983.731 120.674C983.751 118.114 983.871 115.544 984.101 112.994C984.161 112.354 984.221 111.714 984.291 111.064C984.331 111.084 984.851 108.024 984.901 107.764C986.701 98.2844 982.261 87.3444 971.981 85.0044C962.861 82.9244 951.161 87.7644 949.221 97.9244C948.701 100.674 948.291 103.434 947.951 106.184C946.801 105.604 945.541 105.134 944.161 104.824C939.341 103.724 933.481 104.634 928.891 107.334C929.071 101.714 929.511 96.1044 930.211 90.5144C931.411 80.8744 920.841 71.6044 911.711 72.0144C904.191 72.3544 898.931 76.0244 895.941 81.5844C895.441 60.5644 895.581 39.5344 896.341 18.5244C896.651 8.83443 887.541 -0.415571 877.801 0.0144288C867.481 0.474429 859.671 8.14443 859.301 18.5144C858.341 45.2444 858.371 72.0044 859.451 98.7244C860.081 114.314 859.891 131.854 864.661 147.254C864.621 147.214 864.591 147.164 864.551 147.124C864.431 146.984 864.331 146.864 864.241 146.754C864.201 146.674 864.141 146.584 864.061 146.454C862.521 143.974 860.781 141.654 859.321 139.124C857.851 136.594 856.671 133.944 855.321 131.354C855.271 131.264 855.241 131.194 855.201 131.134C855.151 130.994 855.091 130.834 855.031 130.644C854.481 129.144 853.931 127.664 853.431 126.154C852.611 123.634 851.891 121.084 851.291 118.504C850.931 116.954 850.651 115.394 850.331 113.834C850.251 113.434 850.181 113.144 850.131 112.944C850.121 112.794 850.111 112.644 850.091 112.454C849.591 106.614 849.471 100.854 849.961 95.0044C850.781 85.3344 840.871 76.0844 831.461 76.5044C820.741 76.9844 813.841 84.6444 812.961 95.0044C811.711 109.814 813.801 124.584 818.651 138.414C818.451 138.594 818.261 138.784 818.071 138.974C816.371 134.544 814.831 130.064 813.431 125.534C810.581 116.304 800.391 109.474 790.671 112.614C781.371 115.624 774.691 125.464 777.751 135.374C783.071 152.574 790.361 169.174 799.631 184.594C798.341 187.084 797.641 189.864 797.771 192.764C798.221 202.824 805.901 211.224 816.271 211.264C848.911 211.404 881.551 211.544 914.181 211.684C944.801 211.814 978.311 214.914 1005.91 199.004C1014.3 194.164 1017.94 182.054 1012.55 173.694Z" fill="#00A855"/>
<path d="M947.541 219.694C951.401 213.704 957.981 210.294 964.681 210.644C965.071 208.954 965.701 207.284 966.591 205.664C967.831 203.414 968.881 201.074 970.071 198.804C970.161 198.634 970.221 198.534 970.261 198.454C970.331 198.264 970.411 198.034 970.521 197.714C970.911 196.644 971.321 195.584 971.691 194.504C973.471 189.334 974.441 184.084 975.681 178.774C975.711 178.664 975.721 178.594 975.741 178.514C975.871 177.124 976.031 175.754 976.131 174.364C976.311 171.804 976.391 169.244 976.361 166.674C976.341 164.114 976.221 161.544 975.991 158.994C975.931 158.354 975.871 157.714 975.801 157.064C975.761 157.084 975.241 154.024 975.191 153.764C973.391 144.284 977.831 133.344 988.111 131.004C997.231 128.924 1008.93 133.764 1010.87 143.924C1011.39 146.674 1011.8 149.434 1012.14 152.184C1013.29 151.604 1014.55 151.134 1015.93 150.824C1020.75 149.724 1026.61 150.634 1031.2 153.334C1031.02 147.714 1030.58 142.104 1029.88 136.514C1028.68 126.874 1039.25 117.604 1048.38 118.014C1055.9 118.354 1061.16 122.024 1064.15 127.584C1064.65 106.564 1064.51 85.5344 1063.75 64.5244C1063.44 54.8344 1072.55 45.5844 1082.29 46.0144C1092.61 46.4744 1100.42 54.1444 1100.79 64.5144C1101.75 91.2444 1101.72 118.004 1100.64 144.724C1100.01 160.314 1100.2 177.854 1095.43 193.254C1095.47 193.214 1095.5 193.164 1095.54 193.124C1095.66 192.984 1095.76 192.864 1095.85 192.754C1095.89 192.674 1095.95 192.584 1096.03 192.454C1097.57 189.974 1099.31 187.654 1100.77 185.124C1102.24 182.594 1103.42 179.944 1104.77 177.354C1104.82 177.264 1104.85 177.194 1104.89 177.134C1104.94 176.994 1105 176.834 1105.06 176.644C1105.61 175.144 1106.16 173.664 1106.66 172.154C1107.48 169.634 1108.2 167.084 1108.8 164.504C1109.16 162.954 1109.44 161.394 1109.76 159.834C1109.84 159.434 1109.91 159.144 1109.96 158.944C1109.97 158.794 1109.98 158.644 1110 158.454C1110.5 152.614 1110.62 146.854 1110.13 141.004C1109.31 131.334 1119.22 122.084 1128.63 122.504C1139.35 122.984 1146.25 130.644 1147.13 141.004C1148.38 155.814 1146.29 170.584 1141.44 184.414C1141.64 184.594 1141.83 184.784 1142.02 184.974C1143.72 180.544 1145.26 176.064 1146.66 171.534C1149.51 162.304 1159.7 155.474 1169.42 158.614C1178.72 161.624 1185.4 171.464 1182.34 181.374C1177.02 198.574 1169.73 215.174 1160.46 230.594C1161.75 233.084 1162.45 235.864 1162.32 238.764C1161.87 248.824 1154.19 257.224 1143.82 257.264C1111.18 257.404 1078.54 257.544 1045.91 257.684C1015.29 257.814 981.781 260.914 954.181 245.004C945.791 240.164 942.151 228.054 947.541 219.694Z" fill="#00A855"/>
<path d="M1216.89 180.418C1208.72 162.118 1204.54 142.188 1205.04 122.058C1205.28 112.388 1213.38 103.098 1223.54 103.558C1227.92 103.758 1232.12 105.398 1235.41 108.078C1235.48 96.9276 1236.18 85.7276 1237.04 74.6176C1237.78 64.9876 1245.02 55.6476 1255.54 56.1176C1264.93 56.5376 1274.84 64.2876 1274.04 74.6176C1273.43 82.5376 1272.84 90.4776 1272.51 98.4176C1276.27 97.0376 1280.36 96.7376 1283.83 97.8676C1294.3 101.258 1298.3 110.338 1296.75 120.628C1297.38 116.438 1297.46 125.918 1296.89 123.428C1297.43 126.358 1298.52 129.068 1299.25 131.948C1299.31 132.178 1299.34 132.328 1299.35 132.418C1299.45 132.608 1299.58 132.868 1299.75 133.228C1300.38 134.558 1301.03 135.888 1301.7 137.198C1302.93 139.568 1304.25 141.878 1305.6 144.168C1302.81 128.878 1301.99 113.228 1303.39 97.5976C1304.25 87.9876 1311.28 78.6176 1321.89 79.0976C1327.37 79.3476 1333.14 82.1476 1336.77 86.5176C1336.91 83.5876 1337.08 80.6476 1337.28 77.7176C1337.96 68.0876 1345.3 58.7476 1355.78 59.2176C1365.22 59.6376 1375.01 67.3776 1374.28 77.7176C1373.92 82.7976 1373.67 87.8876 1373.52 92.9676C1375.21 88.2176 1376.85 83.4576 1378.36 78.6476C1380.07 73.1976 1381.63 67.6976 1382.92 62.1376C1383.5 59.6376 1384.03 57.1276 1384.5 54.6076C1384.76 53.2076 1384.98 51.7976 1385.23 50.3976C1385.27 50.1576 1385.31 49.9576 1385.34 49.7876C1385.36 49.5376 1385.4 49.1376 1385.47 48.5176C1386.58 38.9376 1393.21 29.5376 1403.98 30.0176C1413.06 30.4276 1423.66 38.2176 1422.48 48.5176C1420.51 65.7276 1416.11 82.0476 1410.69 98.2176C1414.3 94.8576 1419.11 92.7376 1423.6 92.9376C1433.44 93.3776 1439.43 99.5476 1441.51 108.208C1441.62 99.0776 1441.31 89.9376 1440.53 80.7876C1439.7 71.1176 1449.63 61.8676 1459.03 62.2876C1469.76 62.7676 1476.64 70.4276 1477.53 80.7876C1480.72 118.008 1476.66 156.018 1465.81 191.818C1467.8 194.758 1468.95 198.228 1468.79 201.868C1468.34 211.988 1460.66 220.248 1450.29 220.368C1375.77 221.198 1301.23 219.268 1226.85 214.578C1217.21 213.968 1207.88 206.508 1208.35 196.078C1208.62 190.008 1211.88 183.888 1216.89 180.418ZM1283.66 180.578C1283.59 180.468 1283.51 180.328 1283.4 180.138C1283.34 180.288 1283.28 180.448 1283.22 180.598C1283.37 180.598 1283.52 180.608 1283.67 180.618C1283.67 180.608 1283.67 180.588 1283.66 180.578Z" fill="#00A855"/>
<path d="M452.698 180.418C460.868 162.118 465.048 142.188 464.548 122.058C464.308 112.388 456.208 103.098 446.048 103.558C441.668 103.758 437.468 105.398 434.178 108.078C434.108 96.9276 433.408 85.7276 432.548 74.6176C431.808 64.9876 424.568 55.6476 414.048 56.1176C404.658 56.5376 394.748 64.2876 395.548 74.6176C396.158 82.5376 396.748 90.4776 397.078 98.4176C393.318 97.0376 389.228 96.7376 385.758 97.8676C375.288 101.258 371.288 110.338 372.838 120.628C372.208 116.438 372.128 125.918 372.698 123.428C372.158 126.358 371.068 129.068 370.338 131.948C370.278 132.178 370.248 132.328 370.238 132.418C370.138 132.608 370.008 132.868 369.838 133.228C369.208 134.558 368.558 135.888 367.888 137.198C366.658 139.568 365.338 141.878 363.988 144.168C366.778 128.878 367.598 113.228 366.198 97.5976C365.338 87.9876 358.308 78.6176 347.698 79.0976C342.218 79.3476 336.448 82.1476 332.818 86.5176C332.678 83.5876 332.508 80.6476 332.308 77.7176C331.628 68.0876 324.288 58.7476 313.808 59.2176C304.368 59.6376 294.578 67.3776 295.308 77.7176C295.668 82.7976 295.918 87.8876 296.068 92.9676C294.378 88.2176 292.738 83.4576 291.228 78.6476C289.518 73.1976 287.958 67.6976 286.668 62.1376C286.088 59.6376 285.558 57.1276 285.088 54.6076C284.828 53.2076 284.608 51.7976 284.358 50.3976C284.318 50.1576 284.278 49.9576 284.248 49.7876C284.228 49.5376 284.188 49.1376 284.118 48.5176C283.008 38.9376 276.378 29.5376 265.608 30.0176C256.528 30.4276 245.928 38.2176 247.108 48.5176C249.078 65.7276 253.478 82.0476 258.898 98.2176C255.288 94.8576 250.478 92.7376 245.988 92.9376C236.148 93.3776 230.158 99.5476 228.078 108.208C227.968 99.0776 228.278 89.9376 229.058 80.7876C229.888 71.1176 219.958 61.8676 210.558 62.2876C199.828 62.7676 192.948 70.4276 192.058 80.7876C188.868 118.008 192.928 156.018 203.778 191.818C201.788 194.758 200.638 198.228 200.798 201.868C201.248 211.988 208.928 220.248 219.298 220.368C293.818 221.198 368.358 219.268 442.738 214.578C452.378 213.968 461.708 206.508 461.238 196.078C460.968 190.008 457.708 183.888 452.698 180.418ZM385.928 180.578C385.998 180.468 386.078 180.328 386.188 180.138C386.248 180.288 386.308 180.448 386.368 180.598C386.218 180.598 386.068 180.608 385.918 180.618C385.918 180.608 385.918 180.588 385.928 180.578Z" fill="#00A855"/>
<path d="M466.89 217.418C458.72 199.118 454.54 179.188 455.04 159.058C455.28 149.388 463.38 140.098 473.54 140.558C477.92 140.758 482.12 142.398 485.41 145.078C485.48 133.928 486.18 122.728 487.04 111.618C487.78 101.988 495.02 92.6476 505.54 93.1176C514.93 93.5376 524.84 101.288 524.04 111.618C523.43 119.538 522.84 127.478 522.51 135.418C526.27 134.038 530.36 133.738 533.83 134.868C544.3 138.258 548.3 147.338 546.75 157.628C547.38 153.438 547.46 162.918 546.89 160.428C547.43 163.358 548.52 166.068 549.25 168.948C549.31 169.178 549.34 169.328 549.35 169.418C549.45 169.608 549.58 169.868 549.75 170.228C550.38 171.558 551.03 172.888 551.7 174.198C552.93 176.568 554.25 178.878 555.6 181.168C552.81 165.878 551.99 150.228 553.39 134.598C554.25 124.988 561.28 115.618 571.89 116.098C577.37 116.348 583.14 119.148 586.77 123.518C586.91 120.588 587.08 117.648 587.28 114.718C587.96 105.088 595.3 95.7476 605.78 96.2176C615.22 96.6376 625.01 104.378 624.28 114.718C623.92 119.798 623.67 124.888 623.52 129.968C625.21 125.218 626.85 120.458 628.36 115.648C630.07 110.198 631.63 104.698 632.92 99.1376C633.5 96.6376 634.03 94.1276 634.5 91.6076C634.76 90.2076 634.98 88.7976 635.23 87.3976C635.27 87.1576 635.31 86.9576 635.34 86.7876C635.36 86.5376 635.4 86.1376 635.47 85.5176C636.58 75.9376 643.21 66.5376 653.98 67.0176C663.06 67.4276 673.66 75.2176 672.48 85.5176C670.51 102.728 666.11 119.048 660.69 135.218C664.3 131.858 669.11 129.738 673.6 129.938C683.44 130.378 689.43 136.548 691.51 145.208C691.62 136.078 691.31 126.938 690.53 117.788C689.7 108.118 699.63 98.8676 709.03 99.2876C719.76 99.7676 726.64 107.428 727.53 117.788C730.72 155.008 726.66 193.018 715.81 228.818C717.8 231.758 718.95 235.228 718.79 238.868C718.34 248.988 710.66 257.248 700.29 257.368C625.77 258.198 551.23 256.268 476.85 251.578C467.21 250.968 457.88 243.508 458.35 233.078C458.62 227.008 461.88 220.888 466.89 217.418ZM533.66 217.578C533.59 217.468 533.51 217.328 533.4 217.138C533.34 217.288 533.28 217.448 533.22 217.598C533.37 217.598 533.52 217.608 533.67 217.618C533.67 217.608 533.67 217.588 533.66 217.578Z" fill="#00A855"/>
</svg>
