<svg width="105" height="87" viewBox="0 0 105 87" fill="none" xmlns="http://www.w3.org/2000/svg">
<path d="M101.727 22.3439C101.509 21.8533 101.245 21.3808 100.9 20.9265C90.9384 7.96988 76.2328 0.0832585 59.6639 0.473956C49.9116 0.710192 48.2757 13.4215 54.8378 17.4375C42.068 19.291 29.5346 22.7256 17.9191 27.8955C8.38497 32.1387 -6.38432 44.3411 3.70424 55.4352C4.75854 56.5982 6.03097 57.5794 7.40338 58.3881C3.60426 63.5944 0.17779 69.3912 2.75901 76.0422C5.26751 82.5296 12.5204 84.8829 17.9464 80.0491C24.663 74.0705 32.5248 69.1187 40.9592 65.9295C42.2589 65.4388 43.5677 64.9936 44.8856 64.5575C42.4679 66.1203 39.9958 67.6013 37.4782 68.9914C28.7257 73.8615 34.697 89.4259 44.4856 85.6007C70.1251 75.5697 87.3666 54.6719 103.408 33.2199C106.317 29.3311 104.835 25.0334 101.736 22.3439H101.727ZM71.852 43.8959C71.7702 43.8596 71.6884 43.8323 71.6066 43.8051C71.752 43.7687 71.8883 43.7324 72.0338 43.696C71.9701 43.7687 71.9065 43.8323 71.852 43.905V43.8959ZM19.9914 71.8808C20.0186 71.8263 20.055 71.7809 20.0822 71.7263C19.8096 72.435 19.7732 72.4896 19.9914 71.8808Z" fill="#21BF68"/>
</svg>
