<svg width="148" height="125" viewBox="0 0 148 125" fill="none" xmlns="http://www.w3.org/2000/svg">
<path d="M13.0969 69.4275C26.6392 51.6916 45.1258 38.735 66.639 32.5383C71.965 31.0028 77.3911 30.0306 82.8989 29.3855C84.5076 29.1947 86.1163 29.0493 87.725 28.9403C86.9706 28.5859 86.2163 28.2225 85.471 27.85C78.9816 24.6063 72.4922 21.3717 66.0028 18.128C59.3862 14.8207 60.5041 2.50915 68.3295 1.50061C94.3416 -1.86121 120.508 3.24511 142.885 17.1649C146.348 19.3182 147.475 22.6437 147.066 25.7784C148.211 29.6672 147.575 33.983 145.93 37.8082C141.049 49.1566 133.996 60.2052 127.316 70.5814C116.064 88.0629 100.976 109.497 78.0727 110.414C69.9746 110.742 66.3118 100.193 71.7651 94.8047C73.9828 92.615 76.155 90.398 78.3272 88.1719C72.7194 90.5979 67.1116 93.0602 62.0764 96.6855C51.4335 104.363 42.7173 114.04 30.9564 119.782C23.849 124.089 15.8236 126.07 7.32556 124.143C3.66278 123.317 0.990677 119.6 0.563504 115.83C-1.51783 109.933 2.44488 103.618 6.87112 98.957C15.0147 90.3798 25.7122 85.01 36.6914 80.8032C32.1834 81.2756 27.6935 81.9298 23.2219 82.8293C16.3871 84.2013 7.93451 76.1965 13.106 69.4275H13.0969Z" fill="#21BF68"/>
</svg>
