<svg width="362" height="327" viewBox="0 0 362 327" fill="none" xmlns="http://www.w3.org/2000/svg">
<path d="M196.727 22.3439C196.509 21.8533 196.245 21.3808 195.9 20.9265C185.938 7.96988 171.233 0.0832585 154.664 0.473956C144.912 0.710192 143.276 13.4215 149.838 17.4375C137.068 19.291 124.535 22.7256 112.919 27.8955C103.385 32.1387 88.6157 44.3411 98.7042 55.4352C99.7585 56.5982 101.031 57.5794 102.403 58.3881C98.6043 63.5944 95.1778 69.3912 97.759 76.0422C100.268 82.5296 107.52 84.8829 112.946 80.0491C119.663 74.0705 127.525 69.1187 135.959 65.9295C137.259 65.4388 138.568 64.9936 139.886 64.5575C137.468 66.1203 134.996 67.6013 132.478 68.9914C123.726 73.8615 129.697 89.4259 139.486 85.6007C165.125 75.5697 182.367 54.6719 198.408 33.2199C201.317 29.3311 199.835 25.0334 196.736 22.3439H196.727ZM166.852 43.8959C166.77 43.8596 166.688 43.8323 166.607 43.8051C166.752 43.7687 166.888 43.7324 167.034 43.696C166.97 43.7687 166.907 43.8323 166.852 43.905V43.8959ZM114.991 71.8808C115.019 71.8263 115.055 71.7809 115.082 71.7263C114.81 72.435 114.773 72.4896 114.991 71.8808Z" fill="#21BF68"/>
<path d="M13.0969 271.427C26.6392 253.692 45.1258 240.735 66.639 234.538C71.965 233.003 77.3911 232.031 82.8989 231.386C84.5076 231.195 86.1163 231.049 87.725 230.94C86.9706 230.586 86.2163 230.223 85.471 229.85C78.9816 226.606 72.4922 223.372 66.0028 220.128C59.3862 216.821 60.5041 204.509 68.3295 203.501C94.3416 200.139 120.508 205.245 142.885 219.165C146.348 221.318 147.475 224.644 147.066 227.778C148.211 231.667 147.575 235.983 145.93 239.808C141.049 251.157 133.996 262.205 127.316 272.581C116.064 290.063 100.976 311.497 78.0727 312.414C69.9746 312.742 66.3118 302.193 71.7651 296.805C73.9828 294.615 76.155 292.398 78.3272 290.172C72.7194 292.598 67.1116 295.06 62.0764 298.685C51.4335 306.363 42.7173 316.04 30.9564 321.782C23.849 326.089 15.8236 328.07 7.32556 326.143C3.66278 325.317 0.990677 321.6 0.563504 317.83C-1.51783 311.933 2.44488 305.618 6.87112 300.957C15.0147 292.38 25.7122 287.01 36.6914 282.803C32.1834 283.276 27.6935 283.93 23.2219 284.829C16.3871 286.201 7.93451 278.197 13.106 271.427H13.0969Z" fill="#21BF68"/>
<path d="M247.897 69.0641C247.424 59.0786 253.95 51.9643 263.502 50.2834C279.535 47.4667 296.222 47.8029 312.182 50.983C314.99 51.5463 317.626 52.8365 319.853 54.6265C332.368 58.8242 340.884 68.1192 348.61 78.5045C354.008 85.7642 352.327 97.5578 344.62 102.591C339.094 106.199 332.413 106.598 326.915 103.927C340.43 120.927 351.264 140.198 360.298 160.342C363.997 168.592 358.744 179.822 350.246 182.594C340.902 185.647 331.941 181.376 327.978 172.545C326.088 168.338 324.134 164.158 322.07 160.024C321.198 158.27 320.298 156.535 319.389 154.809C319.217 154.491 318.98 154.055 318.735 153.618C318.262 152.764 317.78 151.91 317.299 151.065C315.399 147.731 313.418 144.432 311.364 141.198C309.037 147.276 303.175 152.219 296.685 152.528C286.969 152.991 279.235 146.522 277.899 136.927C277.59 134.701 277.254 132.484 276.863 130.276C276.817 130.013 276.545 128.686 276.308 127.505C275.618 127.642 274.909 127.741 274.2 127.769C264.611 128.223 256.595 121.781 255.413 112.168C254.931 108.216 252.796 95.6679 252.541 92.8967C252.069 87.7813 248.051 72.0625 247.906 69.055L247.897 69.0641Z" fill="#21BF68"/>
</svg>
