<svg width="44" height="44" viewBox="0 0 44 44" fill="none" xmlns="http://www.w3.org/2000/svg">
<path d="M15.9567 15.4103C16.2328 12.8077 19 8.70508 21.4785 5C23.5 8.20508 26.448 12.8077 27.0003 15.4103C27.3316 16.9718 26.7795 20.6154 21.4785 20.6154C16.1776 20.6154 15.7726 17.1453 15.9567 15.4103Z" stroke="black" stroke-width="3"/>
<path d="M7.03363 33.6153C7.30972 31.0128 10.0769 26.9102 12.5554 23.2051C14.5769 26.4102 17.525 31.0128 18.0772 33.6153C18.4085 35.1769 17.8564 38.8205 12.5554 38.8205C7.2545 38.8205 6.84957 35.3504 7.03363 33.6153Z" stroke="black" stroke-width="3"/>
<path d="M25.0336 33.6153C25.3097 31.0128 28.0769 26.9102 30.5554 23.2051C32.5769 26.4102 35.525 31.0128 36.0772 33.6153C36.4085 35.1769 35.8564 38.8205 30.5554 38.8205C25.2545 38.8205 24.8496 35.3504 25.0336 33.6153Z" stroke="black" stroke-width="3"/>
</svg>
